<?xml version="1.0" encoding="utf-8" standalone="no"?>
<!DOCTYPE svg PUBLIC "-//W3C//DTD SVG 1.1//EN"
  "http://www.w3.org/Graphics/SVG/1.1/DTD/svg11.dtd">
<svg xmlns:xlink="http://www.w3.org/1999/xlink" width="827.49375pt" height="319.32pt" viewBox="0 0 827.49375 319.32" xmlns="http://www.w3.org/2000/svg" version="1.1">
 <metadata>
  <rdf:RDF xmlns:dc="http://purl.org/dc/elements/1.1/" xmlns:cc="http://creativecommons.org/ns#" xmlns:rdf="http://www.w3.org/1999/02/22-rdf-syntax-ns#">
   <cc:Work>
    <dc:type rdf:resource="http://purl.org/dc/dcmitype/StillImage"/>
    <dc:date>2026-06-17T00:22:39.343249</dc:date>
    <dc:format>image/svg+xml</dc:format>
    <dc:creator>
     <cc:Agent>
      <dc:title>Matplotlib v3.9.2, https://matplotlib.org/</dc:title>
     </cc:Agent>
    </dc:creator>
   </cc:Work>
  </rdf:RDF>
 </metadata>
 <defs>
  <style type="text/css">*{stroke-linejoin: round; stroke-linecap: butt}</style>
 </defs>
 <g id="figure_1">
  <g id="patch_1">
   <path d="M 0 319.32 
L 827.49375 319.32 
L 827.49375 0 
L 0 0 
z
" style="fill: #ffffff"/>
  </g>
  <g id="axes_1">
   <g id="patch_2">
    <path d="M 22.824 222.9309 
L 85.32 222.9309 
Q 87.6636 222.9309 87.6636 220.644 
L 87.6636 159.66 
Q 87.6636 157.3731 85.32 157.3731 
L 22.824 157.3731 
Q 20.4804 157.3731 20.4804 159.66 
L 20.4804 220.644 
Q 20.4804 222.9309 22.824 222.9309 
z
" clip-path="url(#p426ccd769b)" style="fill: #e94560; opacity: 0.85; stroke: #e94560; stroke-width: 2; stroke-linejoin: miter"/>
   </g>
   <g id="patch_3">
    <path d="M 108.756 222.9309 
L 171.252 222.9309 
Q 173.5956 222.9309 173.5956 220.644 
L 173.5956 159.66 
Q 173.5956 157.3731 171.252 157.3731 
L 108.756 157.3731 
Q 106.4124 157.3731 106.4124 159.66 
L 106.4124 220.644 
Q 106.4124 222.9309 108.756 222.9309 
z
" clip-path="url(#p426ccd769b)" style="fill: #0f3460; opacity: 0.85; stroke: #0f3460; stroke-width: 2; stroke-linejoin: miter"/>
   </g>
   <g id="patch_4">
    <path d="M 194.688 222.9309 
L 257.184 222.9309 
Q 259.5276 222.9309 259.5276 220.644 
L 259.5276 159.66 
Q 259.5276 157.3731 257.184 157.3731 
L 194.688 157.3731 
Q 192.3444 157.3731 192.3444 159.66 
L 192.3444 220.644 
Q 192.3444 222.9309 194.688 222.9309 
z
" clip-path="url(#p426ccd769b)" style="fill: #16213e; opacity: 0.85; stroke: #16213e; stroke-width: 2; stroke-linejoin: miter"/>
   </g>
   <g id="patch_5">
    <path d="M 280.62 222.9309 
L 343.116 222.9309 
Q 345.4596 222.9309 345.4596 220.644 
L 345.4596 159.66 
Q 345.4596 157.3731 343.116 157.3731 
L 280.62 157.3731 
Q 278.2764 157.3731 278.2764 159.66 
L 278.2764 220.644 
Q 278.2764 222.9309 280.62 222.9309 
z
" clip-path="url(#p426ccd769b)" style="fill: #533483; opacity: 0.85; stroke: #533483; stroke-width: 2; stroke-linejoin: miter"/>
   </g>
   <g id="patch_6">
    <path d="M 366.552 222.9309 
L 429.048 222.9309 
Q 431.3916 222.9309 431.3916 220.644 
L 431.3916 159.66 
Q 431.3916 157.3731 429.048 157.3731 
L 366.552 157.3731 
Q 364.2084 157.3731 364.2084 159.66 
L 364.2084 220.644 
Q 364.2084 222.9309 366.552 222.9309 
z
" clip-path="url(#p426ccd769b)" style="fill: #0f3460; opacity: 0.85; stroke: #0f3460; stroke-width: 2; stroke-linejoin: miter"/>
   </g>
   <g id="patch_7">
    <path d="M 452.484 222.9309 
L 514.98 222.9309 
Q 517.3236 222.9309 517.3236 220.644 
L 517.3236 159.66 
Q 517.3236 157.3731 514.98 157.3731 
L 452.484 157.3731 
Q 450.1404 157.3731 450.1404 159.66 
L 450.1404 220.644 
Q 450.1404 222.9309 452.484 222.9309 
z
" clip-path="url(#p426ccd769b)" style="fill: #16213e; opacity: 0.85; stroke: #16213e; stroke-width: 2; stroke-linejoin: miter"/>
   </g>
   <g id="patch_8">
    <path d="M 538.416 222.9309 
L 600.912 222.9309 
Q 603.2556 222.9309 603.2556 220.644 
L 603.2556 159.66 
Q 603.2556 157.3731 600.912 157.3731 
L 538.416 157.3731 
Q 536.0724 157.3731 536.0724 159.66 
L 536.0724 220.644 
Q 536.0724 222.9309 538.416 222.9309 
z
" clip-path="url(#p426ccd769b)" style="fill: #e94560; opacity: 0.85; stroke: #e94560; stroke-width: 2; stroke-linejoin: miter"/>
   </g>
   <g id="patch_9">
    <path d="M 624.348 222.9309 
L 686.844 222.9309 
Q 689.1876 222.9309 689.1876 220.644 
L 689.1876 159.66 
Q 689.1876 157.3731 686.844 157.3731 
L 624.348 157.3731 
Q 622.0044 157.3731 622.0044 159.66 
L 622.0044 220.644 
Q 622.0044 222.9309 624.348 222.9309 
z
" clip-path="url(#p426ccd769b)" style="fill: #533483; opacity: 0.85; stroke: #533483; stroke-width: 2; stroke-linejoin: miter"/>
   </g>
   <g id="patch_10">
    <path d="M 54.072 299.1609 
L 710.28 299.1609 
Q 712.6236 299.1609 712.6236 296.874 
L 712.6236 251.136 
Q 712.6236 248.8491 710.28 248.8491 
L 54.072 248.8491 
Q 51.7284 248.8491 51.7284 251.136 
L 51.7284 296.874 
Q 51.7284 299.1609 54.072 299.1609 
z
" clip-path="url(#p426ccd769b)" style="fill: #f8f9fa; opacity: 0.5; stroke: #16213e; stroke-width: 1.5; stroke-linejoin: miter"/>
   </g>
   <g id="text_1">
    <!-- FinAI Research Workflow -->
    <g style="fill: #1a1a2e" transform="translate(186.675 45.970125) scale(0.3 -0.3)">
     <defs>
      <path id="DejaVuSans-Bold-46" d="M 588 4666 
L 3834 4666 
L 3834 3756 
L 1791 3756 
L 1791 2888 
L 3713 2888 
L 3713 1978 
L 1791 1978 
L 1791 0 
L 588 0 
L 588 4666 
z
" transform="scale(0.015625)"/>
      <path id="DejaVuSans-Bold-69" d="M 538 3500 
L 1656 3500 
L 1656 0 
L 538 0 
L 538 3500 
z
M 538 4863 
L 1656 4863 
L 1656 3950 
L 538 3950 
L 538 4863 
z
" transform="scale(0.015625)"/>
      <path id="DejaVuSans-Bold-6e" d="M 4056 2131 
L 4056 0 
L 2931 0 
L 2931 347 
L 2931 1631 
Q 2931 2084 2911 2256 
Q 2891 2428 2841 2509 
Q 2775 2619 2662 2680 
Q 2550 2741 2406 2741 
Q 2056 2741 1856 2470 
Q 1656 2200 1656 1722 
L 1656 0 
L 538 0 
L 538 3500 
L 1656 3500 
L 1656 2988 
Q 1909 3294 2193 3439 
Q 2478 3584 2822 3584 
Q 3428 3584 3742 3212 
Q 4056 2841 4056 2131 
z
" transform="scale(0.015625)"/>
      <path id="DejaVuSans-Bold-41" d="M 3419 850 
L 1538 850 
L 1241 0 
L 31 0 
L 1759 4666 
L 3194 4666 
L 4922 0 
L 3713 0 
L 3419 850 
z
M 1838 1716 
L 3116 1716 
L 2478 3572 
L 1838 1716 
z
" transform="scale(0.015625)"/>
      <path id="DejaVuSans-Bold-49" d="M 588 4666 
L 1791 4666 
L 1791 0 
L 588 0 
L 588 4666 
z
" transform="scale(0.015625)"/>
      <path id="DejaVuSans-Bold-20" transform="scale(0.015625)"/>
      <path id="DejaVuSans-Bold-52" d="M 2297 2597 
Q 2675 2597 2839 2737 
Q 3003 2878 3003 3200 
Q 3003 3519 2839 3656 
Q 2675 3794 2297 3794 
L 1791 3794 
L 1791 2597 
L 2297 2597 
z
M 1791 1766 
L 1791 0 
L 588 0 
L 588 4666 
L 2425 4666 
Q 3347 4666 3776 4356 
Q 4206 4047 4206 3378 
Q 4206 2916 3982 2619 
Q 3759 2322 3309 2181 
Q 3556 2125 3751 1926 
Q 3947 1728 4147 1325 
L 4800 0 
L 3519 0 
L 2950 1159 
Q 2778 1509 2601 1637 
Q 2425 1766 2131 1766 
L 1791 1766 
z
" transform="scale(0.015625)"/>
      <path id="DejaVuSans-Bold-65" d="M 4031 1759 
L 4031 1441 
L 1416 1441 
Q 1456 1047 1700 850 
Q 1944 653 2381 653 
Q 2734 653 3104 758 
Q 3475 863 3866 1075 
L 3866 213 
Q 3469 63 3072 -14 
Q 2675 -91 2278 -91 
Q 1328 -91 801 392 
Q 275 875 275 1747 
Q 275 2603 792 3093 
Q 1309 3584 2216 3584 
Q 3041 3584 3536 3087 
Q 4031 2591 4031 1759 
z
M 2881 2131 
Q 2881 2450 2695 2645 
Q 2509 2841 2209 2841 
Q 1884 2841 1681 2658 
Q 1478 2475 1428 2131 
L 2881 2131 
z
" transform="scale(0.015625)"/>
      <path id="DejaVuSans-Bold-73" d="M 3272 3391 
L 3272 2541 
Q 2913 2691 2578 2766 
Q 2244 2841 1947 2841 
Q 1628 2841 1473 2761 
Q 1319 2681 1319 2516 
Q 1319 2381 1436 2309 
Q 1553 2238 1856 2203 
L 2053 2175 
Q 2913 2066 3209 1816 
Q 3506 1566 3506 1031 
Q 3506 472 3093 190 
Q 2681 -91 1863 -91 
Q 1516 -91 1145 -36 
Q 775 19 384 128 
L 384 978 
Q 719 816 1070 734 
Q 1422 653 1784 653 
Q 2113 653 2278 743 
Q 2444 834 2444 1013 
Q 2444 1163 2330 1236 
Q 2216 1309 1875 1350 
L 1678 1375 
Q 931 1469 631 1722 
Q 331 1975 331 2491 
Q 331 3047 712 3315 
Q 1094 3584 1881 3584 
Q 2191 3584 2531 3537 
Q 2872 3491 3272 3391 
z
" transform="scale(0.015625)"/>
      <path id="DejaVuSans-Bold-61" d="M 2106 1575 
Q 1756 1575 1579 1456 
Q 1403 1338 1403 1106 
Q 1403 894 1545 773 
Q 1688 653 1941 653 
Q 2256 653 2472 879 
Q 2688 1106 2688 1447 
L 2688 1575 
L 2106 1575 
z
M 3816 1997 
L 3816 0 
L 2688 0 
L 2688 519 
Q 2463 200 2181 54 
Q 1900 -91 1497 -91 
Q 953 -91 614 226 
Q 275 544 275 1050 
Q 275 1666 698 1953 
Q 1122 2241 2028 2241 
L 2688 2241 
L 2688 2328 
Q 2688 2594 2478 2717 
Q 2269 2841 1825 2841 
Q 1466 2841 1156 2769 
Q 847 2697 581 2553 
L 581 3406 
Q 941 3494 1303 3539 
Q 1666 3584 2028 3584 
Q 2975 3584 3395 3211 
Q 3816 2838 3816 1997 
z
" transform="scale(0.015625)"/>
      <path id="DejaVuSans-Bold-72" d="M 3138 2547 
Q 2991 2616 2845 2648 
Q 2700 2681 2553 2681 
Q 2122 2681 1889 2404 
Q 1656 2128 1656 1613 
L 1656 0 
L 538 0 
L 538 3500 
L 1656 3500 
L 1656 2925 
Q 1872 3269 2151 3426 
Q 2431 3584 2822 3584 
Q 2878 3584 2943 3579 
Q 3009 3575 3134 3559 
L 3138 2547 
z
" transform="scale(0.015625)"/>
      <path id="DejaVuSans-Bold-63" d="M 3366 3391 
L 3366 2478 
Q 3138 2634 2908 2709 
Q 2678 2784 2431 2784 
Q 1963 2784 1702 2511 
Q 1441 2238 1441 1747 
Q 1441 1256 1702 982 
Q 1963 709 2431 709 
Q 2694 709 2930 787 
Q 3166 866 3366 1019 
L 3366 103 
Q 3103 6 2833 -42 
Q 2563 -91 2291 -91 
Q 1344 -91 809 395 
Q 275 881 275 1747 
Q 275 2613 809 3098 
Q 1344 3584 2291 3584 
Q 2566 3584 2833 3536 
Q 3100 3488 3366 3391 
z
" transform="scale(0.015625)"/>
      <path id="DejaVuSans-Bold-68" d="M 4056 2131 
L 4056 0 
L 2931 0 
L 2931 347 
L 2931 1625 
Q 2931 2084 2911 2256 
Q 2891 2428 2841 2509 
Q 2775 2619 2662 2680 
Q 2550 2741 2406 2741 
Q 2056 2741 1856 2470 
Q 1656 2200 1656 1722 
L 1656 0 
L 538 0 
L 538 4863 
L 1656 4863 
L 1656 2988 
Q 1909 3294 2193 3439 
Q 2478 3584 2822 3584 
Q 3428 3584 3742 3212 
Q 4056 2841 4056 2131 
z
" transform="scale(0.015625)"/>
      <path id="DejaVuSans-Bold-57" d="M 191 4666 
L 1344 4666 
L 2150 1275 
L 2950 4666 
L 4109 4666 
L 4909 1275 
L 5716 4666 
L 6859 4666 
L 5759 0 
L 4372 0 
L 3525 3547 
L 2688 0 
L 1300 0 
L 191 4666 
z
" transform="scale(0.015625)"/>
      <path id="DejaVuSans-Bold-6f" d="M 2203 2784 
Q 1831 2784 1636 2517 
Q 1441 2250 1441 1747 
Q 1441 1244 1636 976 
Q 1831 709 2203 709 
Q 2569 709 2762 976 
Q 2956 1244 2956 1747 
Q 2956 2250 2762 2517 
Q 2569 2784 2203 2784 
z
M 2203 3584 
Q 3106 3584 3614 3096 
Q 4122 2609 4122 1747 
Q 4122 884 3614 396 
Q 3106 -91 2203 -91 
Q 1297 -91 786 396 
Q 275 884 275 1747 
Q 275 2609 786 3096 
Q 1297 3584 2203 3584 
z
" transform="scale(0.015625)"/>
      <path id="DejaVuSans-Bold-6b" d="M 538 4863 
L 1656 4863 
L 1656 2216 
L 2944 3500 
L 4244 3500 
L 2534 1894 
L 4378 0 
L 3022 0 
L 1656 1459 
L 1656 0 
L 538 0 
L 538 4863 
z
" transform="scale(0.015625)"/>
      <path id="DejaVuSans-Bold-66" d="M 2841 4863 
L 2841 4128 
L 2222 4128 
Q 1984 4128 1890 4042 
Q 1797 3956 1797 3744 
L 1797 3500 
L 2753 3500 
L 2753 2700 
L 1797 2700 
L 1797 0 
L 678 0 
L 678 2700 
L 122 2700 
L 122 3500 
L 678 3500 
L 678 3744 
Q 678 4316 997 4589 
Q 1316 4863 1984 4863 
L 2841 4863 
z
" transform="scale(0.015625)"/>
      <path id="DejaVuSans-Bold-6c" d="M 538 4863 
L 1656 4863 
L 1656 0 
L 538 0 
L 538 4863 
z
" transform="scale(0.015625)"/>
      <path id="DejaVuSans-Bold-77" d="M 225 3500 
L 1313 3500 
L 1900 1088 
L 2491 3500 
L 3425 3500 
L 4013 1113 
L 4603 3500 
L 5691 3500 
L 4769 0 
L 3547 0 
L 2956 2406 
L 2369 0 
L 1147 0 
L 225 3500 
z
" transform="scale(0.015625)"/>
     </defs>
     <use xlink:href="#DejaVuSans-Bold-46"/>
     <use xlink:href="#DejaVuSans-Bold-69" x="68.310547"/>
     <use xlink:href="#DejaVuSans-Bold-6e" x="102.587891"/>
     <use xlink:href="#DejaVuSans-Bold-41" x="173.779297"/>
     <use xlink:href="#DejaVuSans-Bold-49" x="251.171875"/>
     <use xlink:href="#DejaVuSans-Bold-20" x="288.378906"/>
     <use xlink:href="#DejaVuSans-Bold-52" x="323.193359"/>
     <use xlink:href="#DejaVuSans-Bold-65" x="400.195312"/>
     <use xlink:href="#DejaVuSans-Bold-73" x="468.017578"/>
     <use xlink:href="#DejaVuSans-Bold-65" x="527.539062"/>
     <use xlink:href="#DejaVuSans-Bold-61" x="595.361328"/>
     <use xlink:href="#DejaVuSans-Bold-72" x="662.841797"/>
     <use xlink:href="#DejaVuSans-Bold-63" x="712.158203"/>
     <use xlink:href="#DejaVuSans-Bold-68" x="771.435547"/>
     <use xlink:href="#DejaVuSans-Bold-20" x="842.626953"/>
     <use xlink:href="#DejaVuSans-Bold-57" x="877.441406"/>
     <use xlink:href="#DejaVuSans-Bold-6f" x="984.119141"/>
     <use xlink:href="#DejaVuSans-Bold-72" x="1052.820312"/>
     <use xlink:href="#DejaVuSans-Bold-6b" x="1102.136719"/>
     <use xlink:href="#DejaVuSans-Bold-66" x="1168.640625"/>
     <use xlink:href="#DejaVuSans-Bold-6c" x="1212.146484"/>
     <use xlink:href="#DejaVuSans-Bold-6f" x="1246.423828"/>
     <use xlink:href="#DejaVuSans-Bold-77" x="1315.125"/>
    </g>
   </g>
   <g id="text_2">
    <!-- End-to-End AI Agent Pipeline for Economic &amp; Financial Research -->
    <g style="fill: #16213e" transform="translate(205.530938 79.11825) scale(0.12 -0.12)">
     <defs>
      <path id="DejaVuSans-Oblique-45" d="M 1081 4666 
L 4031 4666 
L 3928 4134 
L 1606 4134 
L 1338 2753 
L 3566 2753 
L 3463 2222 
L 1234 2222 
L 909 531 
L 3284 531 
L 3181 0 
L 172 0 
L 1081 4666 
z
" transform="scale(0.015625)"/>
      <path id="DejaVuSans-Oblique-6e" d="M 3566 2113 
L 3156 0 
L 2578 0 
L 2988 2091 
Q 3016 2238 3031 2350 
Q 3047 2463 3047 2528 
Q 3047 2791 2881 2937 
Q 2716 3084 2419 3084 
Q 1956 3084 1622 2776 
Q 1288 2469 1184 1941 
L 800 0 
L 225 0 
L 903 3500 
L 1478 3500 
L 1363 2950 
Q 1603 3253 1940 3418 
Q 2278 3584 2650 3584 
Q 3113 3584 3367 3334 
Q 3622 3084 3622 2631 
Q 3622 2519 3608 2391 
Q 3594 2263 3566 2113 
z
" transform="scale(0.015625)"/>
      <path id="DejaVuSans-Oblique-64" d="M 2675 525 
Q 2444 222 2128 65 
Q 1813 -91 1428 -91 
Q 903 -91 598 267 
Q 294 625 294 1247 
Q 294 1766 478 2236 
Q 663 2706 1013 3078 
Q 1244 3325 1534 3454 
Q 1825 3584 2144 3584 
Q 2481 3584 2739 3421 
Q 2997 3259 3138 2956 
L 3513 4863 
L 4091 4863 
L 3144 0 
L 2566 0 
L 2675 525 
z
M 891 1350 
Q 891 897 1095 644 
Q 1300 391 1663 391 
Q 1931 391 2161 520 
Q 2391 650 2566 903 
Q 2750 1166 2856 1509 
Q 2963 1853 2963 2188 
Q 2963 2622 2758 2865 
Q 2553 3109 2194 3109 
Q 1922 3109 1687 2981 
Q 1453 2853 1288 2613 
Q 1106 2353 998 2009 
Q 891 1666 891 1350 
z
" transform="scale(0.015625)"/>
      <path id="DejaVuSans-Oblique-2d" d="M 391 2009 
L 2075 2009 
L 1978 1497 
L 288 1497 
L 391 2009 
z
" transform="scale(0.015625)"/>
      <path id="DejaVuSans-Oblique-74" d="M 2706 3500 
L 2619 3053 
L 1472 3053 
L 1100 1153 
Q 1081 1047 1072 975 
Q 1063 903 1063 863 
Q 1063 663 1183 572 
Q 1303 481 1569 481 
L 2150 481 
L 2053 0 
L 1503 0 
Q 991 0 739 200 
Q 488 400 488 806 
Q 488 878 497 964 
Q 506 1050 525 1153 
L 897 3053 
L 409 3053 
L 500 3500 
L 978 3500 
L 1172 4494 
L 1747 4494 
L 1556 3500 
L 2706 3500 
z
" transform="scale(0.015625)"/>
      <path id="DejaVuSans-Oblique-6f" d="M 1625 -91 
Q 1009 -91 651 289 
Q 294 669 294 1325 
Q 294 1706 417 2101 
Q 541 2497 738 2766 
Q 1047 3184 1428 3384 
Q 1809 3584 2291 3584 
Q 2888 3584 3255 3212 
Q 3622 2841 3622 2241 
Q 3622 1825 3500 1412 
Q 3378 1000 3181 728 
Q 2875 309 2494 109 
Q 2113 -91 1625 -91 
z
M 891 1344 
Q 891 869 1089 633 
Q 1288 397 1691 397 
Q 2269 397 2648 901 
Q 3028 1406 3028 2181 
Q 3028 2634 2825 2865 
Q 2622 3097 2228 3097 
Q 1903 3097 1650 2945 
Q 1397 2794 1197 2484 
Q 1050 2253 970 1956 
Q 891 1659 891 1344 
z
" transform="scale(0.015625)"/>
      <path id="DejaVuSans-Oblique-20" transform="scale(0.015625)"/>
      <path id="DejaVuSans-Oblique-41" d="M 2356 4666 
L 3072 4666 
L 3938 0 
L 3278 0 
L 3084 1197 
L 984 1197 
L 325 0 
L -341 0 
L 2356 4666 
z
M 2584 4044 
L 1275 1722 
L 2988 1722 
L 2584 4044 
z
" transform="scale(0.015625)"/>
      <path id="DejaVuSans-Oblique-49" d="M 1081 4666 
L 1716 4666 
L 806 0 
L 172 0 
L 1081 4666 
z
" transform="scale(0.015625)"/>
      <path id="DejaVuSans-Oblique-67" d="M 3816 3500 
L 3219 434 
Q 3047 -456 2561 -893 
Q 2075 -1331 1253 -1331 
Q 950 -1331 690 -1286 
Q 431 -1241 206 -1147 
L 313 -588 
Q 525 -725 762 -790 
Q 1000 -856 1269 -856 
Q 1816 -856 2167 -557 
Q 2519 -259 2631 300 
L 2681 563 
Q 2441 288 2122 144 
Q 1803 0 1434 0 
Q 903 0 598 351 
Q 294 703 294 1319 
Q 294 1803 478 2267 
Q 663 2731 997 3091 
Q 1219 3328 1514 3456 
Q 1809 3584 2131 3584 
Q 2484 3584 2746 3420 
Q 3009 3256 3138 2956 
L 3238 3500 
L 3816 3500 
z
M 2950 2216 
Q 2950 2641 2750 2872 
Q 2550 3103 2181 3103 
Q 1953 3103 1747 3012 
Q 1541 2922 1394 2759 
Q 1156 2491 1023 2127 
Q 891 1763 891 1375 
Q 891 944 1092 712 
Q 1294 481 1672 481 
Q 2219 481 2584 976 
Q 2950 1472 2950 2216 
z
" transform="scale(0.015625)"/>
      <path id="DejaVuSans-Oblique-65" d="M 3078 2063 
Q 3088 2113 3092 2166 
Q 3097 2219 3097 2272 
Q 3097 2653 2873 2875 
Q 2650 3097 2266 3097 
Q 1838 3097 1509 2826 
Q 1181 2556 1013 2059 
L 3078 2063 
z
M 3578 1613 
L 903 1613 
Q 884 1494 878 1425 
Q 872 1356 872 1306 
Q 872 872 1139 634 
Q 1406 397 1894 397 
Q 2269 397 2603 481 
Q 2938 566 3225 728 
L 3116 159 
Q 2806 34 2476 -28 
Q 2147 -91 1806 -91 
Q 1078 -91 686 257 
Q 294 606 294 1247 
Q 294 1794 489 2264 
Q 684 2734 1063 3103 
Q 1306 3334 1642 3459 
Q 1978 3584 2356 3584 
Q 2950 3584 3301 3228 
Q 3653 2872 3653 2272 
Q 3653 2128 3634 1964 
Q 3616 1800 3578 1613 
z
" transform="scale(0.015625)"/>
      <path id="DejaVuSans-Oblique-50" d="M 1081 4666 
L 2541 4666 
Q 3178 4666 3512 4369 
Q 3847 4072 3847 3500 
Q 3847 2731 3353 2303 
Q 2859 1875 1966 1875 
L 1172 1875 
L 806 0 
L 172 0 
L 1081 4666 
z
M 1613 4147 
L 1275 2394 
L 2069 2394 
Q 2606 2394 2893 2669 
Q 3181 2944 3181 3456 
Q 3181 3784 2986 3965 
Q 2791 4147 2438 4147 
L 1613 4147 
z
" transform="scale(0.015625)"/>
      <path id="DejaVuSans-Oblique-69" d="M 1172 4863 
L 1747 4863 
L 1606 4134 
L 1031 4134 
L 1172 4863 
z
M 909 3500 
L 1484 3500 
L 800 0 
L 225 0 
L 909 3500 
z
" transform="scale(0.015625)"/>
      <path id="DejaVuSans-Oblique-70" d="M 3175 2156 
Q 3175 2616 2975 2859 
Q 2775 3103 2400 3103 
Q 2144 3103 1911 2972 
Q 1678 2841 1497 2591 
Q 1319 2344 1212 1994 
Q 1106 1644 1106 1300 
Q 1106 863 1306 627 
Q 1506 391 1875 391 
Q 2147 391 2380 519 
Q 2613 647 2778 891 
Q 2956 1147 3065 1494 
Q 3175 1841 3175 2156 
z
M 1394 2969 
Q 1625 3272 1939 3428 
Q 2253 3584 2638 3584 
Q 3175 3584 3472 3232 
Q 3769 2881 3769 2247 
Q 3769 1728 3584 1258 
Q 3400 788 3053 416 
Q 2822 169 2531 39 
Q 2241 -91 1919 -91 
Q 1547 -91 1294 64 
Q 1041 219 916 525 
L 556 -1331 
L -19 -1331 
L 922 3500 
L 1497 3500 
L 1394 2969 
z
" transform="scale(0.015625)"/>
      <path id="DejaVuSans-Oblique-6c" d="M 1172 4863 
L 1747 4863 
L 800 0 
L 225 0 
L 1172 4863 
z
" transform="scale(0.015625)"/>
      <path id="DejaVuSans-Oblique-66" d="M 3059 4863 
L 2969 4384 
L 2419 4384 
Q 2106 4384 1964 4261 
Q 1822 4138 1753 3809 
L 1691 3500 
L 2638 3500 
L 2553 3053 
L 1606 3053 
L 1013 0 
L 434 0 
L 1031 3053 
L 481 3053 
L 563 3500 
L 1113 3500 
L 1159 3744 
Q 1278 4363 1576 4613 
Q 1875 4863 2516 4863 
L 3059 4863 
z
" transform="scale(0.015625)"/>
      <path id="DejaVuSans-Oblique-72" d="M 2853 2969 
Q 2766 3016 2653 3041 
Q 2541 3066 2413 3066 
Q 1953 3066 1609 2717 
Q 1266 2369 1153 1784 
L 800 0 
L 225 0 
L 909 3500 
L 1484 3500 
L 1375 2956 
Q 1603 3259 1920 3421 
Q 2238 3584 2597 3584 
Q 2691 3584 2781 3573 
Q 2872 3563 2963 3538 
L 2853 2969 
z
" transform="scale(0.015625)"/>
      <path id="DejaVuSans-Oblique-63" d="M 3431 3366 
L 3316 2797 
Q 3109 2947 2876 3022 
Q 2644 3097 2394 3097 
Q 2119 3097 1870 3000 
Q 1622 2903 1453 2725 
Q 1184 2453 1037 2087 
Q 891 1722 891 1331 
Q 891 859 1127 628 
Q 1363 397 1844 397 
Q 2081 397 2348 469 
Q 2616 541 2906 684 
L 2797 116 
Q 2547 13 2283 -39 
Q 2019 -91 1741 -91 
Q 1044 -91 669 257 
Q 294 606 294 1253 
Q 294 1797 489 2255 
Q 684 2713 1069 3078 
Q 1331 3328 1684 3456 
Q 2038 3584 2456 3584 
Q 2700 3584 2940 3529 
Q 3181 3475 3431 3366 
z
" transform="scale(0.015625)"/>
      <path id="DejaVuSans-Oblique-6d" d="M 5747 2113 
L 5338 0 
L 4763 0 
L 5166 2094 
Q 5191 2228 5203 2325 
Q 5216 2422 5216 2491 
Q 5216 2772 5059 2928 
Q 4903 3084 4622 3084 
Q 4203 3084 3875 2770 
Q 3547 2456 3450 1953 
L 3066 0 
L 2491 0 
L 2900 2094 
Q 2925 2209 2937 2307 
Q 2950 2406 2950 2484 
Q 2950 2769 2794 2926 
Q 2638 3084 2363 3084 
Q 1938 3084 1609 2770 
Q 1281 2456 1184 1953 
L 800 0 
L 225 0 
L 909 3500 
L 1484 3500 
L 1375 2956 
Q 1609 3263 1923 3423 
Q 2238 3584 2597 3584 
Q 2978 3584 3223 3384 
Q 3469 3184 3519 2828 
Q 3781 3197 4126 3390 
Q 4472 3584 4856 3584 
Q 5306 3584 5551 3325 
Q 5797 3066 5797 2591 
Q 5797 2488 5784 2364 
Q 5772 2241 5747 2113 
z
" transform="scale(0.015625)"/>
      <path id="DejaVuSans-Oblique-26" d="M 3022 813 
L 1691 2509 
Q 1313 2234 1117 1925 
Q 922 1616 922 1294 
Q 922 897 1189 656 
Q 1456 416 1900 416 
Q 2194 416 2480 517 
Q 2766 619 3022 813 
z
M 4709 2503 
Q 4569 2006 4339 1593 
Q 4109 1181 3788 844 
L 4441 0 
L 3653 0 
L 3322 434 
Q 2991 175 2609 42 
Q 2228 -91 1813 -91 
Q 1122 -91 711 250 
Q 300 591 300 1153 
Q 300 1634 589 2062 
Q 878 2491 1447 2853 
Q 1350 2997 1304 3145 
Q 1259 3294 1259 3463 
Q 1259 3675 1331 3865 
Q 1403 4056 1538 4213 
Q 1753 4469 2078 4609 
Q 2403 4750 2778 4750 
Q 3022 4750 3269 4694 
Q 3516 4638 3769 4525 
L 3659 3956 
Q 3425 4103 3192 4179 
Q 2959 4256 2741 4256 
Q 2353 4256 2111 4054 
Q 1869 3853 1869 3541 
Q 1869 3403 1928 3268 
Q 1988 3134 2203 2859 
L 3475 1234 
Q 3709 1481 3875 1801 
Q 4041 2122 4128 2503 
L 4709 2503 
z
" transform="scale(0.015625)"/>
      <path id="DejaVuSans-Oblique-46" d="M 1081 4666 
L 3756 4666 
L 3653 4134 
L 1606 4134 
L 1338 2759 
L 3188 2759 
L 3084 2228 
L 1234 2228 
L 800 0 
L 172 0 
L 1081 4666 
z
" transform="scale(0.015625)"/>
      <path id="DejaVuSans-Oblique-61" d="M 3438 1997 
L 3047 0 
L 2472 0 
L 2578 531 
Q 2325 219 2001 64 
Q 1678 -91 1281 -91 
Q 834 -91 548 182 
Q 263 456 263 884 
Q 263 1497 752 1853 
Q 1241 2209 2100 2209 
L 2900 2209 
L 2931 2363 
Q 2938 2388 2941 2417 
Q 2944 2447 2944 2509 
Q 2944 2788 2717 2942 
Q 2491 3097 2081 3097 
Q 1800 3097 1504 3025 
Q 1209 2953 897 2809 
L 997 3341 
Q 1322 3463 1633 3523 
Q 1944 3584 2234 3584 
Q 2853 3584 3176 3315 
Q 3500 3047 3500 2534 
Q 3500 2431 3484 2292 
Q 3469 2153 3438 1997 
z
M 2816 1759 
L 2241 1759 
Q 1534 1759 1195 1570 
Q 856 1381 856 984 
Q 856 709 1029 553 
Q 1203 397 1509 397 
Q 1978 397 2328 733 
Q 2678 1069 2791 1631 
L 2816 1759 
z
" transform="scale(0.015625)"/>
      <path id="DejaVuSans-Oblique-52" d="M 1613 4147 
L 1294 2491 
L 2106 2491 
Q 2584 2491 2879 2755 
Q 3175 3019 3175 3444 
Q 3175 3784 2976 3965 
Q 2778 4147 2406 4147 
L 1613 4147 
z
M 2772 2241 
Q 2972 2194 3105 2009 
Q 3238 1825 3413 1275 
L 3809 0 
L 3144 0 
L 2778 1197 
Q 2638 1659 2453 1815 
Q 2269 1972 1888 1972 
L 1191 1972 
L 806 0 
L 172 0 
L 1081 4666 
L 2503 4666 
Q 3150 4666 3495 4373 
Q 3841 4081 3841 3531 
Q 3841 3044 3547 2687 
Q 3253 2331 2772 2241 
z
" transform="scale(0.015625)"/>
      <path id="DejaVuSans-Oblique-73" d="M 3200 3397 
L 3091 2853 
Q 2863 2978 2609 3040 
Q 2356 3103 2088 3103 
Q 1634 3103 1373 2948 
Q 1113 2794 1113 2528 
Q 1113 2219 1719 2053 
Q 1766 2041 1788 2034 
L 1972 1978 
Q 2547 1819 2739 1644 
Q 2931 1469 2931 1166 
Q 2931 609 2489 259 
Q 2047 -91 1331 -91 
Q 1053 -91 747 -37 
Q 441 16 72 128 
L 184 722 
Q 500 559 806 475 
Q 1113 391 1394 391 
Q 1816 391 2080 572 
Q 2344 753 2344 1031 
Q 2344 1331 1650 1516 
L 1591 1531 
L 1394 1581 
Q 956 1697 753 1886 
Q 550 2075 550 2369 
Q 550 2928 970 3256 
Q 1391 3584 2113 3584 
Q 2397 3584 2667 3537 
Q 2938 3491 3200 3397 
z
" transform="scale(0.015625)"/>
      <path id="DejaVuSans-Oblique-68" d="M 3566 2113 
L 3156 0 
L 2578 0 
L 2988 2091 
Q 3016 2238 3031 2350 
Q 3047 2463 3047 2528 
Q 3047 2791 2881 2937 
Q 2716 3084 2419 3084 
Q 1956 3084 1617 2771 
Q 1278 2459 1178 1941 
L 800 0 
L 225 0 
L 1172 4863 
L 1747 4863 
L 1375 2950 
Q 1594 3244 1934 3414 
Q 2275 3584 2650 3584 
Q 3113 3584 3367 3334 
Q 3622 3084 3622 2631 
Q 3622 2519 3608 2391 
Q 3594 2263 3566 2113 
z
" transform="scale(0.015625)"/>
     </defs>
     <use xlink:href="#DejaVuSans-Oblique-45"/>
     <use xlink:href="#DejaVuSans-Oblique-6e" x="63.183594"/>
     <use xlink:href="#DejaVuSans-Oblique-64" x="126.5625"/>
     <use xlink:href="#DejaVuSans-Oblique-2d" x="190.039062"/>
     <use xlink:href="#DejaVuSans-Oblique-74" x="226.123047"/>
     <use xlink:href="#DejaVuSans-Oblique-6f" x="265.332031"/>
     <use xlink:href="#DejaVuSans-Oblique-2d" x="326.513672"/>
     <use xlink:href="#DejaVuSans-Oblique-45" x="362.597656"/>
     <use xlink:href="#DejaVuSans-Oblique-6e" x="425.78125"/>
     <use xlink:href="#DejaVuSans-Oblique-64" x="489.160156"/>
     <use xlink:href="#DejaVuSans-Oblique-20" x="552.636719"/>
     <use xlink:href="#DejaVuSans-Oblique-41" x="584.423828"/>
     <use xlink:href="#DejaVuSans-Oblique-49" x="652.832031"/>
     <use xlink:href="#DejaVuSans-Oblique-20" x="682.324219"/>
     <use xlink:href="#DejaVuSans-Oblique-41" x="714.111328"/>
     <use xlink:href="#DejaVuSans-Oblique-67" x="782.519531"/>
     <use xlink:href="#DejaVuSans-Oblique-65" x="845.996094"/>
     <use xlink:href="#DejaVuSans-Oblique-6e" x="907.519531"/>
     <use xlink:href="#DejaVuSans-Oblique-74" x="970.898438"/>
     <use xlink:href="#DejaVuSans-Oblique-20" x="1010.107422"/>
     <use xlink:href="#DejaVuSans-Oblique-50" x="1041.894531"/>
     <use xlink:href="#DejaVuSans-Oblique-69" x="1102.197266"/>
     <use xlink:href="#DejaVuSans-Oblique-70" x="1129.980469"/>
     <use xlink:href="#DejaVuSans-Oblique-65" x="1193.457031"/>
     <use xlink:href="#DejaVuSans-Oblique-6c" x="1254.980469"/>
     <use xlink:href="#DejaVuSans-Oblique-69" x="1282.763672"/>
     <use xlink:href="#DejaVuSans-Oblique-6e" x="1310.546875"/>
     <use xlink:href="#DejaVuSans-Oblique-65" x="1373.925781"/>
     <use xlink:href="#DejaVuSans-Oblique-20" x="1435.449219"/>
     <use xlink:href="#DejaVuSans-Oblique-66" x="1467.236328"/>
     <use xlink:href="#DejaVuSans-Oblique-6f" x="1502.441406"/>
     <use xlink:href="#DejaVuSans-Oblique-72" x="1563.623047"/>
     <use xlink:href="#DejaVuSans-Oblique-20" x="1604.736328"/>
     <use xlink:href="#DejaVuSans-Oblique-45" x="1636.523438"/>
     <use xlink:href="#DejaVuSans-Oblique-63" x="1699.707031"/>
     <use xlink:href="#DejaVuSans-Oblique-6f" x="1754.6875"/>
     <use xlink:href="#DejaVuSans-Oblique-6e" x="1815.869141"/>
     <use xlink:href="#DejaVuSans-Oblique-6f" x="1879.248047"/>
     <use xlink:href="#DejaVuSans-Oblique-6d" x="1940.429688"/>
     <use xlink:href="#DejaVuSans-Oblique-69" x="2037.841797"/>
     <use xlink:href="#DejaVuSans-Oblique-63" x="2065.625"/>
     <use xlink:href="#DejaVuSans-Oblique-20" x="2120.605469"/>
     <use xlink:href="#DejaVuSans-Oblique-26" x="2152.392578"/>
     <use xlink:href="#DejaVuSans-Oblique-20" x="2230.371094"/>
     <use xlink:href="#DejaVuSans-Oblique-46" x="2262.158203"/>
     <use xlink:href="#DejaVuSans-Oblique-69" x="2319.677734"/>
     <use xlink:href="#DejaVuSans-Oblique-6e" x="2347.460938"/>
     <use xlink:href="#DejaVuSans-Oblique-61" x="2410.839844"/>
     <use xlink:href="#DejaVuSans-Oblique-6e" x="2472.119141"/>
     <use xlink:href="#DejaVuSans-Oblique-63" x="2535.498047"/>
     <use xlink:href="#DejaVuSans-Oblique-69" x="2590.478516"/>
     <use xlink:href="#DejaVuSans-Oblique-61" x="2618.261719"/>
     <use xlink:href="#DejaVuSans-Oblique-6c" x="2679.541016"/>
     <use xlink:href="#DejaVuSans-Oblique-20" x="2707.324219"/>
     <use xlink:href="#DejaVuSans-Oblique-52" x="2739.111328"/>
     <use xlink:href="#DejaVuSans-Oblique-65" x="2808.59375"/>
     <use xlink:href="#DejaVuSans-Oblique-73" x="2870.117188"/>
     <use xlink:href="#DejaVuSans-Oblique-65" x="2922.216797"/>
     <use xlink:href="#DejaVuSans-Oblique-61" x="2983.740234"/>
     <use xlink:href="#DejaVuSans-Oblique-72" x="3045.019531"/>
     <use xlink:href="#DejaVuSans-Oblique-63" x="3086.132812"/>
     <use xlink:href="#DejaVuSans-Oblique-68" x="3141.113281"/>
    </g>
   </g>
   <g id="text_3">
    <!-- Idea -->
    <g style="fill: #ffffff" transform="translate(40.646844 193.187312) scale(0.11 -0.11)">
     <defs>
      <path id="DejaVuSans-Bold-64" d="M 2919 2988 
L 2919 4863 
L 4044 4863 
L 4044 0 
L 2919 0 
L 2919 506 
Q 2688 197 2409 53 
Q 2131 -91 1766 -91 
Q 1119 -91 703 423 
Q 288 938 288 1747 
Q 288 2556 703 3070 
Q 1119 3584 1766 3584 
Q 2128 3584 2408 3439 
Q 2688 3294 2919 2988 
z
M 2181 722 
Q 2541 722 2730 984 
Q 2919 1247 2919 1747 
Q 2919 2247 2730 2509 
Q 2541 2772 2181 2772 
Q 1825 2772 1636 2509 
Q 1447 2247 1447 1747 
Q 1447 1247 1636 984 
Q 1825 722 2181 722 
z
" transform="scale(0.015625)"/>
     </defs>
     <use xlink:href="#DejaVuSans-Bold-49"/>
     <use xlink:href="#DejaVuSans-Bold-64" x="37.207031"/>
     <use xlink:href="#DejaVuSans-Bold-65" x="108.789062"/>
     <use xlink:href="#DejaVuSans-Bold-61" x="176.611328"/>
    </g>
   </g>
   <g id="patch_11">
    <path d="M 91.228588 190.152 
Q 97.039969 190.152 101.174299 190.152 
" style="fill: none; stroke: #16213e; stroke-width: 1.5; stroke-linecap: round"/>
    <path d="M 97.174299 188.152 
L 101.174299 190.152 
L 97.174299 192.152 
" style="fill: none; stroke: #16213e; stroke-width: 1.5; stroke-linecap: round"/>
   </g>
   <g id="text_4">
    <!-- Lit Review -->
    <g style="fill: #ffffff" transform="translate(107.822125 193.187312) scale(0.11 -0.11)">
     <defs>
      <path id="DejaVuSans-Bold-4c" d="M 588 4666 
L 1791 4666 
L 1791 909 
L 3903 909 
L 3903 0 
L 588 0 
L 588 4666 
z
" transform="scale(0.015625)"/>
      <path id="DejaVuSans-Bold-74" d="M 1759 4494 
L 1759 3500 
L 2913 3500 
L 2913 2700 
L 1759 2700 
L 1759 1216 
Q 1759 972 1856 886 
Q 1953 800 2241 800 
L 2816 800 
L 2816 0 
L 1856 0 
Q 1194 0 917 276 
Q 641 553 641 1216 
L 641 2700 
L 84 2700 
L 84 3500 
L 641 3500 
L 641 4494 
L 1759 4494 
z
" transform="scale(0.015625)"/>
      <path id="DejaVuSans-Bold-76" d="M 97 3500 
L 1216 3500 
L 2088 1081 
L 2956 3500 
L 4078 3500 
L 2700 0 
L 1472 0 
L 97 3500 
z
" transform="scale(0.015625)"/>
     </defs>
     <use xlink:href="#DejaVuSans-Bold-4c"/>
     <use xlink:href="#DejaVuSans-Bold-69" x="63.720703"/>
     <use xlink:href="#DejaVuSans-Bold-74" x="97.998047"/>
     <use xlink:href="#DejaVuSans-Bold-20" x="145.800781"/>
     <use xlink:href="#DejaVuSans-Bold-52" x="180.615234"/>
     <use xlink:href="#DejaVuSans-Bold-65" x="257.617188"/>
     <use xlink:href="#DejaVuSans-Bold-76" x="325.439453"/>
     <use xlink:href="#DejaVuSans-Bold-69" x="390.625"/>
     <use xlink:href="#DejaVuSans-Bold-65" x="424.902344"/>
     <use xlink:href="#DejaVuSans-Bold-77" x="492.724609"/>
    </g>
   </g>
   <g id="patch_12">
    <path d="M 177.160588 190.152 
Q 182.971969 190.152 187.106299 190.152 
" style="fill: none; stroke: #16213e; stroke-width: 1.5; stroke-linecap: round"/>
    <path d="M 183.106299 188.152 
L 187.106299 190.152 
L 183.106299 192.152 
" style="fill: none; stroke: #16213e; stroke-width: 1.5; stroke-linecap: round"/>
   </g>
   <g id="text_5">
    <!-- Novelty -->
    <g style="fill: #ffffff" transform="translate(202.139047 193.144344) scale(0.11 -0.11)">
     <defs>
      <path id="DejaVuSans-Bold-4e" d="M 588 4666 
L 1931 4666 
L 3628 1466 
L 3628 4666 
L 4769 4666 
L 4769 0 
L 3425 0 
L 1728 3200 
L 1728 0 
L 588 0 
L 588 4666 
z
" transform="scale(0.015625)"/>
      <path id="DejaVuSans-Bold-79" d="M 78 3500 
L 1197 3500 
L 2138 1125 
L 2938 3500 
L 4056 3500 
L 2584 -331 
Q 2363 -916 2067 -1148 
Q 1772 -1381 1288 -1381 
L 641 -1381 
L 641 -647 
L 991 -647 
Q 1275 -647 1404 -556 
Q 1534 -466 1606 -231 
L 1638 -134 
L 78 3500 
z
" transform="scale(0.015625)"/>
     </defs>
     <use xlink:href="#DejaVuSans-Bold-4e"/>
     <use xlink:href="#DejaVuSans-Bold-6f" x="83.691406"/>
     <use xlink:href="#DejaVuSans-Bold-76" x="152.392578"/>
     <use xlink:href="#DejaVuSans-Bold-65" x="217.578125"/>
     <use xlink:href="#DejaVuSans-Bold-6c" x="285.400391"/>
     <use xlink:href="#DejaVuSans-Bold-74" x="319.677734"/>
     <use xlink:href="#DejaVuSans-Bold-79" x="367.480469"/>
    </g>
   </g>
   <g id="patch_13">
    <path d="M 263.092588 190.152 
Q 268.903969 190.152 273.038299 190.152 
" style="fill: none; stroke: #16213e; stroke-width: 1.5; stroke-linecap: round"/>
    <path d="M 269.038299 188.152 
L 273.038299 190.152 
L 269.038299 192.152 
" style="fill: none; stroke: #16213e; stroke-width: 1.5; stroke-linecap: round"/>
   </g>
   <g id="text_6">
    <!-- Design -->
    <g style="fill: #ffffff" transform="translate(290.560656 193.144344) scale(0.11 -0.11)">
     <defs>
      <path id="DejaVuSans-Bold-44" d="M 1791 3756 
L 1791 909 
L 2222 909 
Q 2959 909 3348 1275 
Q 3738 1641 3738 2338 
Q 3738 3031 3350 3393 
Q 2963 3756 2222 3756 
L 1791 3756 
z
M 588 4666 
L 1856 4666 
Q 2919 4666 3439 4514 
Q 3959 4363 4331 4000 
Q 4659 3684 4818 3271 
Q 4978 2859 4978 2338 
Q 4978 1809 4818 1395 
Q 4659 981 4331 666 
Q 3956 303 3431 151 
Q 2906 0 1856 0 
L 588 0 
L 588 4666 
z
" transform="scale(0.015625)"/>
      <path id="DejaVuSans-Bold-67" d="M 2919 594 
Q 2688 288 2409 144 
Q 2131 0 1766 0 
Q 1125 0 706 504 
Q 288 1009 288 1791 
Q 288 2575 706 3076 
Q 1125 3578 1766 3578 
Q 2131 3578 2409 3434 
Q 2688 3291 2919 2981 
L 2919 3500 
L 4044 3500 
L 4044 353 
Q 4044 -491 3511 -936 
Q 2978 -1381 1966 -1381 
Q 1638 -1381 1331 -1331 
Q 1025 -1281 716 -1178 
L 716 -306 
Q 1009 -475 1290 -558 
Q 1572 -641 1856 -641 
Q 2406 -641 2662 -400 
Q 2919 -159 2919 353 
L 2919 594 
z
M 2181 2772 
Q 1834 2772 1640 2515 
Q 1447 2259 1447 1791 
Q 1447 1309 1634 1061 
Q 1822 813 2181 813 
Q 2531 813 2725 1069 
Q 2919 1325 2919 1791 
Q 2919 2259 2725 2515 
Q 2531 2772 2181 2772 
z
" transform="scale(0.015625)"/>
     </defs>
     <use xlink:href="#DejaVuSans-Bold-44"/>
     <use xlink:href="#DejaVuSans-Bold-65" x="83.007812"/>
     <use xlink:href="#DejaVuSans-Bold-73" x="150.830078"/>
     <use xlink:href="#DejaVuSans-Bold-69" x="210.351562"/>
     <use xlink:href="#DejaVuSans-Bold-67" x="244.628906"/>
     <use xlink:href="#DejaVuSans-Bold-6e" x="316.210938"/>
    </g>
   </g>
   <g id="patch_14">
    <path d="M 349.024588 190.152 
Q 354.835969 190.152 358.970299 190.152 
" style="fill: none; stroke: #16213e; stroke-width: 1.5; stroke-linecap: round"/>
    <path d="M 354.970299 188.152 
L 358.970299 190.152 
L 354.970299 192.152 
" style="fill: none; stroke: #16213e; stroke-width: 1.5; stroke-linecap: round"/>
   </g>
   <g id="text_7">
    <!-- Data -->
    <g style="fill: #ffffff" transform="translate(383.182031 193.187312) scale(0.11 -0.11)">
     <use xlink:href="#DejaVuSans-Bold-44"/>
     <use xlink:href="#DejaVuSans-Bold-61" x="83.007812"/>
     <use xlink:href="#DejaVuSans-Bold-74" x="150.488281"/>
     <use xlink:href="#DejaVuSans-Bold-61" x="198.291016"/>
    </g>
   </g>
   <g id="patch_15">
    <path d="M 434.956588 190.152 
Q 440.767969 190.152 444.902299 190.152 
" style="fill: none; stroke: #16213e; stroke-width: 1.5; stroke-linecap: round"/>
    <path d="M 440.902299 188.152 
L 444.902299 190.152 
L 440.902299 192.152 
" style="fill: none; stroke: #16213e; stroke-width: 1.5; stroke-linecap: round"/>
   </g>
   <g id="text_8">
    <!-- Analysis -->
    <g style="fill: #ffffff" transform="translate(457.945594 193.144344) scale(0.11 -0.11)">
     <use xlink:href="#DejaVuSans-Bold-41"/>
     <use xlink:href="#DejaVuSans-Bold-6e" x="77.392578"/>
     <use xlink:href="#DejaVuSans-Bold-61" x="148.583984"/>
     <use xlink:href="#DejaVuSans-Bold-6c" x="216.064453"/>
     <use xlink:href="#DejaVuSans-Bold-79" x="250.341797"/>
     <use xlink:href="#DejaVuSans-Bold-73" x="315.527344"/>
     <use xlink:href="#DejaVuSans-Bold-69" x="375.048828"/>
     <use xlink:href="#DejaVuSans-Bold-73" x="409.326172"/>
    </g>
   </g>
   <g id="patch_16">
    <path d="M 520.888588 190.152 
Q 526.699969 190.152 530.834299 190.152 
" style="fill: none; stroke: #16213e; stroke-width: 1.5; stroke-linecap: round"/>
    <path d="M 526.834299 188.152 
L 530.834299 190.152 
L 526.834299 192.152 
" style="fill: none; stroke: #16213e; stroke-width: 1.5; stroke-linecap: round"/>
   </g>
   <g id="text_9">
    <!-- Writing -->
    <g style="fill: #ffffff" transform="translate(546.729859 193.144344) scale(0.11 -0.11)">
     <use xlink:href="#DejaVuSans-Bold-57"/>
     <use xlink:href="#DejaVuSans-Bold-72" x="108.552734"/>
     <use xlink:href="#DejaVuSans-Bold-69" x="157.869141"/>
     <use xlink:href="#DejaVuSans-Bold-74" x="192.146484"/>
     <use xlink:href="#DejaVuSans-Bold-69" x="239.949219"/>
     <use xlink:href="#DejaVuSans-Bold-6e" x="274.226562"/>
     <use xlink:href="#DejaVuSans-Bold-67" x="345.417969"/>
    </g>
   </g>
   <g id="patch_17">
    <path d="M 606.820588 190.152 
Q 612.631969 190.152 616.766299 190.152 
" style="fill: none; stroke: #16213e; stroke-width: 1.5; stroke-linecap: round"/>
    <path d="M 612.766299 188.152 
L 616.766299 190.152 
L 612.766299 192.152 
" style="fill: none; stroke: #16213e; stroke-width: 1.5; stroke-linecap: round"/>
   </g>
   <g id="text_10">
    <!-- Review -->
    <g style="fill: #ffffff" transform="translate(633.347641 193.187312) scale(0.11 -0.11)">
     <use xlink:href="#DejaVuSans-Bold-52"/>
     <use xlink:href="#DejaVuSans-Bold-65" x="77.001953"/>
     <use xlink:href="#DejaVuSans-Bold-76" x="144.824219"/>
     <use xlink:href="#DejaVuSans-Bold-69" x="210.009766"/>
     <use xlink:href="#DejaVuSans-Bold-65" x="244.287109"/>
     <use xlink:href="#DejaVuSans-Bold-77" x="312.109375"/>
    </g>
   </g>
   <g id="text_11">
    <!-- 43 MCP Data Sources -->
    <g style="fill: #e94560" transform="translate(69.696 265.605812) scale(0.11 -0.11)">
     <defs>
      <path id="DejaVuSans-Bold-34" d="M 2356 3675 
L 1038 1722 
L 2356 1722 
L 2356 3675 
z
M 2156 4666 
L 3494 4666 
L 3494 1722 
L 4159 1722 
L 4159 850 
L 3494 850 
L 3494 0 
L 2356 0 
L 2356 850 
L 288 850 
L 288 1881 
L 2156 4666 
z
" transform="scale(0.015625)"/>
      <path id="DejaVuSans-Bold-33" d="M 2981 2516 
Q 3453 2394 3698 2092 
Q 3944 1791 3944 1325 
Q 3944 631 3412 270 
Q 2881 -91 1863 -91 
Q 1503 -91 1142 -33 
Q 781 25 428 141 
L 428 1069 
Q 766 900 1098 814 
Q 1431 728 1753 728 
Q 2231 728 2486 893 
Q 2741 1059 2741 1369 
Q 2741 1688 2480 1852 
Q 2219 2016 1709 2016 
L 1228 2016 
L 1228 2791 
L 1734 2791 
Q 2188 2791 2409 2933 
Q 2631 3075 2631 3366 
Q 2631 3634 2415 3781 
Q 2200 3928 1806 3928 
Q 1516 3928 1219 3862 
Q 922 3797 628 3669 
L 628 4550 
Q 984 4650 1334 4700 
Q 1684 4750 2022 4750 
Q 2931 4750 3382 4451 
Q 3834 4153 3834 3553 
Q 3834 3144 3618 2883 
Q 3403 2622 2981 2516 
z
" transform="scale(0.015625)"/>
      <path id="DejaVuSans-Bold-4d" d="M 588 4666 
L 2119 4666 
L 3181 2169 
L 4250 4666 
L 5778 4666 
L 5778 0 
L 4641 0 
L 4641 3413 
L 3566 897 
L 2803 897 
L 1728 3413 
L 1728 0 
L 588 0 
L 588 4666 
z
" transform="scale(0.015625)"/>
      <path id="DejaVuSans-Bold-43" d="M 4288 256 
Q 3956 84 3597 -3 
Q 3238 -91 2847 -91 
Q 1681 -91 1000 561 
Q 319 1213 319 2328 
Q 319 3447 1000 4098 
Q 1681 4750 2847 4750 
Q 3238 4750 3597 4662 
Q 3956 4575 4288 4403 
L 4288 3438 
Q 3953 3666 3628 3772 
Q 3303 3878 2944 3878 
Q 2300 3878 1931 3465 
Q 1563 3053 1563 2328 
Q 1563 1606 1931 1193 
Q 2300 781 2944 781 
Q 3303 781 3628 887 
Q 3953 994 4288 1222 
L 4288 256 
z
" transform="scale(0.015625)"/>
      <path id="DejaVuSans-Bold-50" d="M 588 4666 
L 2584 4666 
Q 3475 4666 3951 4270 
Q 4428 3875 4428 3144 
Q 4428 2409 3951 2014 
Q 3475 1619 2584 1619 
L 1791 1619 
L 1791 0 
L 588 0 
L 588 4666 
z
M 1791 3794 
L 1791 2491 
L 2456 2491 
Q 2806 2491 2997 2661 
Q 3188 2831 3188 3144 
Q 3188 3456 2997 3625 
Q 2806 3794 2456 3794 
L 1791 3794 
z
" transform="scale(0.015625)"/>
      <path id="DejaVuSans-Bold-53" d="M 3834 4519 
L 3834 3531 
Q 3450 3703 3084 3790 
Q 2719 3878 2394 3878 
Q 1963 3878 1756 3759 
Q 1550 3641 1550 3391 
Q 1550 3203 1689 3098 
Q 1828 2994 2194 2919 
L 2706 2816 
Q 3484 2659 3812 2340 
Q 4141 2022 4141 1434 
Q 4141 663 3683 286 
Q 3225 -91 2284 -91 
Q 1841 -91 1394 -6 
Q 947 78 500 244 
L 500 1259 
Q 947 1022 1364 901 
Q 1781 781 2169 781 
Q 2563 781 2772 912 
Q 2981 1044 2981 1288 
Q 2981 1506 2839 1625 
Q 2697 1744 2272 1838 
L 1806 1941 
Q 1106 2091 782 2419 
Q 459 2747 459 3303 
Q 459 4000 909 4375 
Q 1359 4750 2203 4750 
Q 2588 4750 2994 4692 
Q 3400 4634 3834 4519 
z
" transform="scale(0.015625)"/>
      <path id="DejaVuSans-Bold-75" d="M 500 1363 
L 500 3500 
L 1625 3500 
L 1625 3150 
Q 1625 2866 1622 2436 
Q 1619 2006 1619 1863 
Q 1619 1441 1641 1255 
Q 1663 1069 1716 984 
Q 1784 875 1895 815 
Q 2006 756 2150 756 
Q 2500 756 2700 1025 
Q 2900 1294 2900 1772 
L 2900 3500 
L 4019 3500 
L 4019 0 
L 2900 0 
L 2900 506 
Q 2647 200 2364 54 
Q 2081 -91 1741 -91 
Q 1134 -91 817 281 
Q 500 653 500 1363 
z
" transform="scale(0.015625)"/>
     </defs>
     <use xlink:href="#DejaVuSans-Bold-34"/>
     <use xlink:href="#DejaVuSans-Bold-33" x="69.580078"/>
     <use xlink:href="#DejaVuSans-Bold-20" x="139.160156"/>
     <use xlink:href="#DejaVuSans-Bold-4d" x="173.974609"/>
     <use xlink:href="#DejaVuSans-Bold-43" x="273.486328"/>
     <use xlink:href="#DejaVuSans-Bold-50" x="346.875"/>
     <use xlink:href="#DejaVuSans-Bold-20" x="420.166016"/>
     <use xlink:href="#DejaVuSans-Bold-44" x="454.980469"/>
     <use xlink:href="#DejaVuSans-Bold-61" x="537.988281"/>
     <use xlink:href="#DejaVuSans-Bold-74" x="605.46875"/>
     <use xlink:href="#DejaVuSans-Bold-61" x="653.271484"/>
     <use xlink:href="#DejaVuSans-Bold-20" x="720.751953"/>
     <use xlink:href="#DejaVuSans-Bold-53" x="755.566406"/>
     <use xlink:href="#DejaVuSans-Bold-6f" x="827.587891"/>
     <use xlink:href="#DejaVuSans-Bold-75" x="896.289062"/>
     <use xlink:href="#DejaVuSans-Bold-72" x="967.480469"/>
     <use xlink:href="#DejaVuSans-Bold-63" x="1016.796875"/>
     <use xlink:href="#DejaVuSans-Bold-65" x="1076.074219"/>
     <use xlink:href="#DejaVuSans-Bold-73" x="1143.896484"/>
    </g>
   </g>
   <g id="text_12">
    <!-- OpenAlex | ArXiv | Tushare | yfinance | FRED | CSMAR | Wind | Context7 | ... -->
    <g style="fill: #16213e" transform="translate(69.696 284.005969) scale(0.09 -0.09)">
     <defs>
      <path id="DejaVuSans-4f" d="M 2522 4238 
Q 1834 4238 1429 3725 
Q 1025 3213 1025 2328 
Q 1025 1447 1429 934 
Q 1834 422 2522 422 
Q 3209 422 3611 934 
Q 4013 1447 4013 2328 
Q 4013 3213 3611 3725 
Q 3209 4238 2522 4238 
z
M 2522 4750 
Q 3503 4750 4090 4092 
Q 4678 3434 4678 2328 
Q 4678 1225 4090 567 
Q 3503 -91 2522 -91 
Q 1538 -91 948 565 
Q 359 1222 359 2328 
Q 359 3434 948 4092 
Q 1538 4750 2522 4750 
z
" transform="scale(0.015625)"/>
      <path id="DejaVuSans-70" d="M 1159 525 
L 1159 -1331 
L 581 -1331 
L 581 3500 
L 1159 3500 
L 1159 2969 
Q 1341 3281 1617 3432 
Q 1894 3584 2278 3584 
Q 2916 3584 3314 3078 
Q 3713 2572 3713 1747 
Q 3713 922 3314 415 
Q 2916 -91 2278 -91 
Q 1894 -91 1617 61 
Q 1341 213 1159 525 
z
M 3116 1747 
Q 3116 2381 2855 2742 
Q 2594 3103 2138 3103 
Q 1681 3103 1420 2742 
Q 1159 2381 1159 1747 
Q 1159 1113 1420 752 
Q 1681 391 2138 391 
Q 2594 391 2855 752 
Q 3116 1113 3116 1747 
z
" transform="scale(0.015625)"/>
      <path id="DejaVuSans-65" d="M 3597 1894 
L 3597 1613 
L 953 1613 
Q 991 1019 1311 708 
Q 1631 397 2203 397 
Q 2534 397 2845 478 
Q 3156 559 3463 722 
L 3463 178 
Q 3153 47 2828 -22 
Q 2503 -91 2169 -91 
Q 1331 -91 842 396 
Q 353 884 353 1716 
Q 353 2575 817 3079 
Q 1281 3584 2069 3584 
Q 2775 3584 3186 3129 
Q 3597 2675 3597 1894 
z
M 3022 2063 
Q 3016 2534 2758 2815 
Q 2500 3097 2075 3097 
Q 1594 3097 1305 2825 
Q 1016 2553 972 2059 
L 3022 2063 
z
" transform="scale(0.015625)"/>
      <path id="DejaVuSans-6e" d="M 3513 2113 
L 3513 0 
L 2938 0 
L 2938 2094 
Q 2938 2591 2744 2837 
Q 2550 3084 2163 3084 
Q 1697 3084 1428 2787 
Q 1159 2491 1159 1978 
L 1159 0 
L 581 0 
L 581 3500 
L 1159 3500 
L 1159 2956 
Q 1366 3272 1645 3428 
Q 1925 3584 2291 3584 
Q 2894 3584 3203 3211 
Q 3513 2838 3513 2113 
z
" transform="scale(0.015625)"/>
      <path id="DejaVuSans-41" d="M 2188 4044 
L 1331 1722 
L 3047 1722 
L 2188 4044 
z
M 1831 4666 
L 2547 4666 
L 4325 0 
L 3669 0 
L 3244 1197 
L 1141 1197 
L 716 0 
L 50 0 
L 1831 4666 
z
" transform="scale(0.015625)"/>
      <path id="DejaVuSans-6c" d="M 603 4863 
L 1178 4863 
L 1178 0 
L 603 0 
L 603 4863 
z
" transform="scale(0.015625)"/>
      <path id="DejaVuSans-78" d="M 3513 3500 
L 2247 1797 
L 3578 0 
L 2900 0 
L 1881 1375 
L 863 0 
L 184 0 
L 1544 1831 
L 300 3500 
L 978 3500 
L 1906 2253 
L 2834 3500 
L 3513 3500 
z
" transform="scale(0.015625)"/>
      <path id="DejaVuSans-20" transform="scale(0.015625)"/>
      <path id="DejaVuSans-7c" d="M 1344 4891 
L 1344 -1509 
L 813 -1509 
L 813 4891 
L 1344 4891 
z
" transform="scale(0.015625)"/>
      <path id="DejaVuSans-72" d="M 2631 2963 
Q 2534 3019 2420 3045 
Q 2306 3072 2169 3072 
Q 1681 3072 1420 2755 
Q 1159 2438 1159 1844 
L 1159 0 
L 581 0 
L 581 3500 
L 1159 3500 
L 1159 2956 
Q 1341 3275 1631 3429 
Q 1922 3584 2338 3584 
Q 2397 3584 2469 3576 
Q 2541 3569 2628 3553 
L 2631 2963 
z
" transform="scale(0.015625)"/>
      <path id="DejaVuSans-58" d="M 403 4666 
L 1081 4666 
L 2241 2931 
L 3406 4666 
L 4084 4666 
L 2584 2425 
L 4184 0 
L 3506 0 
L 2194 1984 
L 872 0 
L 191 0 
L 1856 2491 
L 403 4666 
z
" transform="scale(0.015625)"/>
      <path id="DejaVuSans-69" d="M 603 3500 
L 1178 3500 
L 1178 0 
L 603 0 
L 603 3500 
z
M 603 4863 
L 1178 4863 
L 1178 4134 
L 603 4134 
L 603 4863 
z
" transform="scale(0.015625)"/>
      <path id="DejaVuSans-76" d="M 191 3500 
L 800 3500 
L 1894 563 
L 2988 3500 
L 3597 3500 
L 2284 0 
L 1503 0 
L 191 3500 
z
" transform="scale(0.015625)"/>
      <path id="DejaVuSans-54" d="M -19 4666 
L 3928 4666 
L 3928 4134 
L 2272 4134 
L 2272 0 
L 1638 0 
L 1638 4134 
L -19 4134 
L -19 4666 
z
" transform="scale(0.015625)"/>
      <path id="DejaVuSans-75" d="M 544 1381 
L 544 3500 
L 1119 3500 
L 1119 1403 
Q 1119 906 1312 657 
Q 1506 409 1894 409 
Q 2359 409 2629 706 
Q 2900 1003 2900 1516 
L 2900 3500 
L 3475 3500 
L 3475 0 
L 2900 0 
L 2900 538 
Q 2691 219 2414 64 
Q 2138 -91 1772 -91 
Q 1169 -91 856 284 
Q 544 659 544 1381 
z
M 1991 3584 
L 1991 3584 
z
" transform="scale(0.015625)"/>
      <path id="DejaVuSans-73" d="M 2834 3397 
L 2834 2853 
Q 2591 2978 2328 3040 
Q 2066 3103 1784 3103 
Q 1356 3103 1142 2972 
Q 928 2841 928 2578 
Q 928 2378 1081 2264 
Q 1234 2150 1697 2047 
L 1894 2003 
Q 2506 1872 2764 1633 
Q 3022 1394 3022 966 
Q 3022 478 2636 193 
Q 2250 -91 1575 -91 
Q 1294 -91 989 -36 
Q 684 19 347 128 
L 347 722 
Q 666 556 975 473 
Q 1284 391 1588 391 
Q 1994 391 2212 530 
Q 2431 669 2431 922 
Q 2431 1156 2273 1281 
Q 2116 1406 1581 1522 
L 1381 1569 
Q 847 1681 609 1914 
Q 372 2147 372 2553 
Q 372 3047 722 3315 
Q 1072 3584 1716 3584 
Q 2034 3584 2315 3537 
Q 2597 3491 2834 3397 
z
" transform="scale(0.015625)"/>
      <path id="DejaVuSans-68" d="M 3513 2113 
L 3513 0 
L 2938 0 
L 2938 2094 
Q 2938 2591 2744 2837 
Q 2550 3084 2163 3084 
Q 1697 3084 1428 2787 
Q 1159 2491 1159 1978 
L 1159 0 
L 581 0 
L 581 4863 
L 1159 4863 
L 1159 2956 
Q 1366 3272 1645 3428 
Q 1925 3584 2291 3584 
Q 2894 3584 3203 3211 
Q 3513 2838 3513 2113 
z
" transform="scale(0.015625)"/>
      <path id="DejaVuSans-61" d="M 2194 1759 
Q 1497 1759 1228 1600 
Q 959 1441 959 1056 
Q 959 750 1161 570 
Q 1363 391 1709 391 
Q 2188 391 2477 730 
Q 2766 1069 2766 1631 
L 2766 1759 
L 2194 1759 
z
M 3341 1997 
L 3341 0 
L 2766 0 
L 2766 531 
Q 2569 213 2275 61 
Q 1981 -91 1556 -91 
Q 1019 -91 701 211 
Q 384 513 384 1019 
Q 384 1609 779 1909 
Q 1175 2209 1959 2209 
L 2766 2209 
L 2766 2266 
Q 2766 2663 2505 2880 
Q 2244 3097 1772 3097 
Q 1472 3097 1187 3025 
Q 903 2953 641 2809 
L 641 3341 
Q 956 3463 1253 3523 
Q 1550 3584 1831 3584 
Q 2591 3584 2966 3190 
Q 3341 2797 3341 1997 
z
" transform="scale(0.015625)"/>
      <path id="DejaVuSans-79" d="M 2059 -325 
Q 1816 -950 1584 -1140 
Q 1353 -1331 966 -1331 
L 506 -1331 
L 506 -850 
L 844 -850 
Q 1081 -850 1212 -737 
Q 1344 -625 1503 -206 
L 1606 56 
L 191 3500 
L 800 3500 
L 1894 763 
L 2988 3500 
L 3597 3500 
L 2059 -325 
z
" transform="scale(0.015625)"/>
      <path id="DejaVuSans-66" d="M 2375 4863 
L 2375 4384 
L 1825 4384 
Q 1516 4384 1395 4259 
Q 1275 4134 1275 3809 
L 1275 3500 
L 2222 3500 
L 2222 3053 
L 1275 3053 
L 1275 0 
L 697 0 
L 697 3053 
L 147 3053 
L 147 3500 
L 697 3500 
L 697 3744 
Q 697 4328 969 4595 
Q 1241 4863 1831 4863 
L 2375 4863 
z
" transform="scale(0.015625)"/>
      <path id="DejaVuSans-63" d="M 3122 3366 
L 3122 2828 
Q 2878 2963 2633 3030 
Q 2388 3097 2138 3097 
Q 1578 3097 1268 2742 
Q 959 2388 959 1747 
Q 959 1106 1268 751 
Q 1578 397 2138 397 
Q 2388 397 2633 464 
Q 2878 531 3122 666 
L 3122 134 
Q 2881 22 2623 -34 
Q 2366 -91 2075 -91 
Q 1284 -91 818 406 
Q 353 903 353 1747 
Q 353 2603 823 3093 
Q 1294 3584 2113 3584 
Q 2378 3584 2631 3529 
Q 2884 3475 3122 3366 
z
" transform="scale(0.015625)"/>
      <path id="DejaVuSans-46" d="M 628 4666 
L 3309 4666 
L 3309 4134 
L 1259 4134 
L 1259 2759 
L 3109 2759 
L 3109 2228 
L 1259 2228 
L 1259 0 
L 628 0 
L 628 4666 
z
" transform="scale(0.015625)"/>
      <path id="DejaVuSans-52" d="M 2841 2188 
Q 3044 2119 3236 1894 
Q 3428 1669 3622 1275 
L 4263 0 
L 3584 0 
L 2988 1197 
Q 2756 1666 2539 1819 
Q 2322 1972 1947 1972 
L 1259 1972 
L 1259 0 
L 628 0 
L 628 4666 
L 2053 4666 
Q 2853 4666 3247 4331 
Q 3641 3997 3641 3322 
Q 3641 2881 3436 2590 
Q 3231 2300 2841 2188 
z
M 1259 4147 
L 1259 2491 
L 2053 2491 
Q 2509 2491 2742 2702 
Q 2975 2913 2975 3322 
Q 2975 3731 2742 3939 
Q 2509 4147 2053 4147 
L 1259 4147 
z
" transform="scale(0.015625)"/>
      <path id="DejaVuSans-45" d="M 628 4666 
L 3578 4666 
L 3578 4134 
L 1259 4134 
L 1259 2753 
L 3481 2753 
L 3481 2222 
L 1259 2222 
L 1259 531 
L 3634 531 
L 3634 0 
L 628 0 
L 628 4666 
z
" transform="scale(0.015625)"/>
      <path id="DejaVuSans-44" d="M 1259 4147 
L 1259 519 
L 2022 519 
Q 2988 519 3436 956 
Q 3884 1394 3884 2338 
Q 3884 3275 3436 3711 
Q 2988 4147 2022 4147 
L 1259 4147 
z
M 628 4666 
L 1925 4666 
Q 3281 4666 3915 4102 
Q 4550 3538 4550 2338 
Q 4550 1131 3912 565 
Q 3275 0 1925 0 
L 628 0 
L 628 4666 
z
" transform="scale(0.015625)"/>
      <path id="DejaVuSans-43" d="M 4122 4306 
L 4122 3641 
Q 3803 3938 3442 4084 
Q 3081 4231 2675 4231 
Q 1875 4231 1450 3742 
Q 1025 3253 1025 2328 
Q 1025 1406 1450 917 
Q 1875 428 2675 428 
Q 3081 428 3442 575 
Q 3803 722 4122 1019 
L 4122 359 
Q 3791 134 3420 21 
Q 3050 -91 2638 -91 
Q 1578 -91 968 557 
Q 359 1206 359 2328 
Q 359 3453 968 4101 
Q 1578 4750 2638 4750 
Q 3056 4750 3426 4639 
Q 3797 4528 4122 4306 
z
" transform="scale(0.015625)"/>
      <path id="DejaVuSans-53" d="M 3425 4513 
L 3425 3897 
Q 3066 4069 2747 4153 
Q 2428 4238 2131 4238 
Q 1616 4238 1336 4038 
Q 1056 3838 1056 3469 
Q 1056 3159 1242 3001 
Q 1428 2844 1947 2747 
L 2328 2669 
Q 3034 2534 3370 2195 
Q 3706 1856 3706 1288 
Q 3706 609 3251 259 
Q 2797 -91 1919 -91 
Q 1588 -91 1214 -16 
Q 841 59 441 206 
L 441 856 
Q 825 641 1194 531 
Q 1563 422 1919 422 
Q 2459 422 2753 634 
Q 3047 847 3047 1241 
Q 3047 1584 2836 1778 
Q 2625 1972 2144 2069 
L 1759 2144 
Q 1053 2284 737 2584 
Q 422 2884 422 3419 
Q 422 4038 858 4394 
Q 1294 4750 2059 4750 
Q 2388 4750 2728 4690 
Q 3069 4631 3425 4513 
z
" transform="scale(0.015625)"/>
      <path id="DejaVuSans-4d" d="M 628 4666 
L 1569 4666 
L 2759 1491 
L 3956 4666 
L 4897 4666 
L 4897 0 
L 4281 0 
L 4281 4097 
L 3078 897 
L 2444 897 
L 1241 4097 
L 1241 0 
L 628 0 
L 628 4666 
z
" transform="scale(0.015625)"/>
      <path id="DejaVuSans-57" d="M 213 4666 
L 850 4666 
L 1831 722 
L 2809 4666 
L 3519 4666 
L 4500 722 
L 5478 4666 
L 6119 4666 
L 4947 0 
L 4153 0 
L 3169 4050 
L 2175 0 
L 1381 0 
L 213 4666 
z
" transform="scale(0.015625)"/>
      <path id="DejaVuSans-64" d="M 2906 2969 
L 2906 4863 
L 3481 4863 
L 3481 0 
L 2906 0 
L 2906 525 
Q 2725 213 2448 61 
Q 2172 -91 1784 -91 
Q 1150 -91 751 415 
Q 353 922 353 1747 
Q 353 2572 751 3078 
Q 1150 3584 1784 3584 
Q 2172 3584 2448 3432 
Q 2725 3281 2906 2969 
z
M 947 1747 
Q 947 1113 1208 752 
Q 1469 391 1925 391 
Q 2381 391 2643 752 
Q 2906 1113 2906 1747 
Q 2906 2381 2643 2742 
Q 2381 3103 1925 3103 
Q 1469 3103 1208 2742 
Q 947 2381 947 1747 
z
" transform="scale(0.015625)"/>
      <path id="DejaVuSans-6f" d="M 1959 3097 
Q 1497 3097 1228 2736 
Q 959 2375 959 1747 
Q 959 1119 1226 758 
Q 1494 397 1959 397 
Q 2419 397 2687 759 
Q 2956 1122 2956 1747 
Q 2956 2369 2687 2733 
Q 2419 3097 1959 3097 
z
M 1959 3584 
Q 2709 3584 3137 3096 
Q 3566 2609 3566 1747 
Q 3566 888 3137 398 
Q 2709 -91 1959 -91 
Q 1206 -91 779 398 
Q 353 888 353 1747 
Q 353 2609 779 3096 
Q 1206 3584 1959 3584 
z
" transform="scale(0.015625)"/>
      <path id="DejaVuSans-74" d="M 1172 4494 
L 1172 3500 
L 2356 3500 
L 2356 3053 
L 1172 3053 
L 1172 1153 
Q 1172 725 1289 603 
Q 1406 481 1766 481 
L 2356 481 
L 2356 0 
L 1766 0 
Q 1100 0 847 248 
Q 594 497 594 1153 
L 594 3053 
L 172 3053 
L 172 3500 
L 594 3500 
L 594 4494 
L 1172 4494 
z
" transform="scale(0.015625)"/>
      <path id="DejaVuSans-37" d="M 525 4666 
L 3525 4666 
L 3525 4397 
L 1831 0 
L 1172 0 
L 2766 4134 
L 525 4134 
L 525 4666 
z
" transform="scale(0.015625)"/>
      <path id="DejaVuSans-2e" d="M 684 794 
L 1344 794 
L 1344 0 
L 684 0 
L 684 794 
z
" transform="scale(0.015625)"/>
     </defs>
     <use xlink:href="#DejaVuSans-4f"/>
     <use xlink:href="#DejaVuSans-70" x="78.710938"/>
     <use xlink:href="#DejaVuSans-65" x="142.1875"/>
     <use xlink:href="#DejaVuSans-6e" x="203.710938"/>
     <use xlink:href="#DejaVuSans-41" x="267.089844"/>
     <use xlink:href="#DejaVuSans-6c" x="335.498047"/>
     <use xlink:href="#DejaVuSans-65" x="363.28125"/>
     <use xlink:href="#DejaVuSans-78" x="423.054688"/>
     <use xlink:href="#DejaVuSans-20" x="482.234375"/>
     <use xlink:href="#DejaVuSans-7c" x="514.021484"/>
     <use xlink:href="#DejaVuSans-20" x="547.712891"/>
     <use xlink:href="#DejaVuSans-41" x="579.5"/>
     <use xlink:href="#DejaVuSans-72" x="647.908203"/>
     <use xlink:href="#DejaVuSans-58" x="689.021484"/>
     <use xlink:href="#DejaVuSans-69" x="757.527344"/>
     <use xlink:href="#DejaVuSans-76" x="785.310547"/>
     <use xlink:href="#DejaVuSans-20" x="844.490234"/>
     <use xlink:href="#DejaVuSans-7c" x="876.277344"/>
     <use xlink:href="#DejaVuSans-20" x="909.96875"/>
     <use xlink:href="#DejaVuSans-54" x="941.755859"/>
     <use xlink:href="#DejaVuSans-75" x="987.714844"/>
     <use xlink:href="#DejaVuSans-73" x="1051.09375"/>
     <use xlink:href="#DejaVuSans-68" x="1103.193359"/>
     <use xlink:href="#DejaVuSans-61" x="1166.572266"/>
     <use xlink:href="#DejaVuSans-72" x="1227.851562"/>
     <use xlink:href="#DejaVuSans-65" x="1266.714844"/>
     <use xlink:href="#DejaVuSans-20" x="1328.238281"/>
     <use xlink:href="#DejaVuSans-7c" x="1360.025391"/>
     <use xlink:href="#DejaVuSans-20" x="1393.716797"/>
     <use xlink:href="#DejaVuSans-79" x="1425.503906"/>
     <use xlink:href="#DejaVuSans-66" x="1484.683594"/>
     <use xlink:href="#DejaVuSans-69" x="1519.888672"/>
     <use xlink:href="#DejaVuSans-6e" x="1547.671875"/>
     <use xlink:href="#DejaVuSans-61" x="1611.050781"/>
     <use xlink:href="#DejaVuSans-6e" x="1672.330078"/>
     <use xlink:href="#DejaVuSans-63" x="1735.708984"/>
     <use xlink:href="#DejaVuSans-65" x="1790.689453"/>
     <use xlink:href="#DejaVuSans-20" x="1852.212891"/>
     <use xlink:href="#DejaVuSans-7c" x="1884"/>
     <use xlink:href="#DejaVuSans-20" x="1917.691406"/>
     <use xlink:href="#DejaVuSans-46" x="1949.478516"/>
     <use xlink:href="#DejaVuSans-52" x="2006.998047"/>
     <use xlink:href="#DejaVuSans-45" x="2076.480469"/>
     <use xlink:href="#DejaVuSans-44" x="2139.664062"/>
     <use xlink:href="#DejaVuSans-20" x="2216.666016"/>
     <use xlink:href="#DejaVuSans-7c" x="2248.453125"/>
     <use xlink:href="#DejaVuSans-20" x="2282.144531"/>
     <use xlink:href="#DejaVuSans-43" x="2313.931641"/>
     <use xlink:href="#DejaVuSans-53" x="2383.755859"/>
     <use xlink:href="#DejaVuSans-4d" x="2447.232422"/>
     <use xlink:href="#DejaVuSans-41" x="2533.511719"/>
     <use xlink:href="#DejaVuSans-52" x="2601.919922"/>
     <use xlink:href="#DejaVuSans-20" x="2671.402344"/>
     <use xlink:href="#DejaVuSans-7c" x="2703.189453"/>
     <use xlink:href="#DejaVuSans-20" x="2736.880859"/>
     <use xlink:href="#DejaVuSans-57" x="2768.667969"/>
     <use xlink:href="#DejaVuSans-69" x="2865.294922"/>
     <use xlink:href="#DejaVuSans-6e" x="2893.078125"/>
     <use xlink:href="#DejaVuSans-64" x="2956.457031"/>
     <use xlink:href="#DejaVuSans-20" x="3019.933594"/>
     <use xlink:href="#DejaVuSans-7c" x="3051.720703"/>
     <use xlink:href="#DejaVuSans-20" x="3085.412109"/>
     <use xlink:href="#DejaVuSans-43" x="3117.199219"/>
     <use xlink:href="#DejaVuSans-6f" x="3187.023438"/>
     <use xlink:href="#DejaVuSans-6e" x="3248.205078"/>
     <use xlink:href="#DejaVuSans-74" x="3311.583984"/>
     <use xlink:href="#DejaVuSans-65" x="3350.792969"/>
     <use xlink:href="#DejaVuSans-78" x="3410.566406"/>
     <use xlink:href="#DejaVuSans-74" x="3469.746094"/>
     <use xlink:href="#DejaVuSans-37" x="3508.955078"/>
     <use xlink:href="#DejaVuSans-20" x="3572.578125"/>
     <use xlink:href="#DejaVuSans-7c" x="3604.365234"/>
     <use xlink:href="#DejaVuSans-20" x="3638.056641"/>
     <use xlink:href="#DejaVuSans-2e" x="3669.84375"/>
     <use xlink:href="#DejaVuSans-2e" x="3701.630859"/>
     <use xlink:href="#DejaVuSans-2e" x="3733.417969"/>
    </g>
   </g>
   <g id="text_13">
    <!-- 42 Methods | 17 Skills | 45 Journals -->
    <g style="fill: #e94560" transform="translate(475.92 265.476906) scale(0.11 -0.11)">
     <defs>
      <path id="DejaVuSans-Bold-32" d="M 1844 884 
L 3897 884 
L 3897 0 
L 506 0 
L 506 884 
L 2209 2388 
Q 2438 2594 2547 2791 
Q 2656 2988 2656 3200 
Q 2656 3528 2436 3728 
Q 2216 3928 1850 3928 
Q 1569 3928 1234 3808 
Q 900 3688 519 3450 
L 519 4475 
Q 925 4609 1322 4679 
Q 1719 4750 2100 4750 
Q 2938 4750 3402 4381 
Q 3866 4013 3866 3353 
Q 3866 2972 3669 2642 
Q 3472 2313 2841 1759 
L 1844 884 
z
" transform="scale(0.015625)"/>
      <path id="DejaVuSans-Bold-7c" d="M 1522 4891 
L 1522 -1509 
L 813 -1509 
L 813 4891 
L 1522 4891 
z
" transform="scale(0.015625)"/>
      <path id="DejaVuSans-Bold-31" d="M 750 831 
L 1813 831 
L 1813 3847 
L 722 3622 
L 722 4441 
L 1806 4666 
L 2950 4666 
L 2950 831 
L 4013 831 
L 4013 0 
L 750 0 
L 750 831 
z
" transform="scale(0.015625)"/>
      <path id="DejaVuSans-Bold-37" d="M 428 4666 
L 3944 4666 
L 3944 3988 
L 2125 0 
L 953 0 
L 2675 3781 
L 428 3781 
L 428 4666 
z
" transform="scale(0.015625)"/>
      <path id="DejaVuSans-Bold-35" d="M 678 4666 
L 3669 4666 
L 3669 3781 
L 1638 3781 
L 1638 3059 
Q 1775 3097 1914 3117 
Q 2053 3138 2203 3138 
Q 3056 3138 3531 2711 
Q 4006 2284 4006 1522 
Q 4006 766 3489 337 
Q 2972 -91 2053 -91 
Q 1656 -91 1267 -14 
Q 878 63 494 219 
L 494 1166 
Q 875 947 1217 837 
Q 1559 728 1863 728 
Q 2300 728 2551 942 
Q 2803 1156 2803 1522 
Q 2803 1891 2551 2103 
Q 2300 2316 1863 2316 
Q 1603 2316 1309 2248 
Q 1016 2181 678 2041 
L 678 4666 
z
" transform="scale(0.015625)"/>
      <path id="DejaVuSans-Bold-4a" d="M 588 4666 
L 1791 4666 
L 1791 453 
Q 1791 -419 1317 -850 
Q 844 -1281 -116 -1281 
L -359 -1281 
L -359 -372 
L -172 -372 
Q 203 -372 395 -162 
Q 588 47 588 453 
L 588 4666 
z
" transform="scale(0.015625)"/>
     </defs>
     <use xlink:href="#DejaVuSans-Bold-34"/>
     <use xlink:href="#DejaVuSans-Bold-32" x="69.580078"/>
     <use xlink:href="#DejaVuSans-Bold-20" x="139.160156"/>
     <use xlink:href="#DejaVuSans-Bold-4d" x="173.974609"/>
     <use xlink:href="#DejaVuSans-Bold-65" x="273.486328"/>
     <use xlink:href="#DejaVuSans-Bold-74" x="341.308594"/>
     <use xlink:href="#DejaVuSans-Bold-68" x="389.111328"/>
     <use xlink:href="#DejaVuSans-Bold-6f" x="460.302734"/>
     <use xlink:href="#DejaVuSans-Bold-64" x="529.003906"/>
     <use xlink:href="#DejaVuSans-Bold-73" x="600.585938"/>
     <use xlink:href="#DejaVuSans-Bold-20" x="660.107422"/>
     <use xlink:href="#DejaVuSans-Bold-7c" x="694.921875"/>
     <use xlink:href="#DejaVuSans-Bold-20" x="731.445312"/>
     <use xlink:href="#DejaVuSans-Bold-31" x="766.259766"/>
     <use xlink:href="#DejaVuSans-Bold-37" x="835.839844"/>
     <use xlink:href="#DejaVuSans-Bold-20" x="905.419922"/>
     <use xlink:href="#DejaVuSans-Bold-53" x="940.234375"/>
     <use xlink:href="#DejaVuSans-Bold-6b" x="1012.255859"/>
     <use xlink:href="#DejaVuSans-Bold-69" x="1078.759766"/>
     <use xlink:href="#DejaVuSans-Bold-6c" x="1113.037109"/>
     <use xlink:href="#DejaVuSans-Bold-6c" x="1147.314453"/>
     <use xlink:href="#DejaVuSans-Bold-73" x="1181.591797"/>
     <use xlink:href="#DejaVuSans-Bold-20" x="1241.113281"/>
     <use xlink:href="#DejaVuSans-Bold-7c" x="1275.927734"/>
     <use xlink:href="#DejaVuSans-Bold-20" x="1312.451172"/>
     <use xlink:href="#DejaVuSans-Bold-34" x="1347.265625"/>
     <use xlink:href="#DejaVuSans-Bold-35" x="1416.845703"/>
     <use xlink:href="#DejaVuSans-Bold-20" x="1486.425781"/>
     <use xlink:href="#DejaVuSans-Bold-4a" x="1521.240234"/>
     <use xlink:href="#DejaVuSans-Bold-6f" x="1558.447266"/>
     <use xlink:href="#DejaVuSans-Bold-75" x="1627.148438"/>
     <use xlink:href="#DejaVuSans-Bold-72" x="1698.339844"/>
     <use xlink:href="#DejaVuSans-Bold-6e" x="1747.65625"/>
     <use xlink:href="#DejaVuSans-Bold-61" x="1818.847656"/>
     <use xlink:href="#DejaVuSans-Bold-6c" x="1886.328125"/>
     <use xlink:href="#DejaVuSans-Bold-73" x="1920.605469"/>
    </g>
   </g>
   <g id="text_14">
    <!-- DID/IV/RDD/PSM/GMM | CS/SunAb/Borusyak/dCdH | modern causal inference -->
    <g style="fill: #16213e" transform="translate(475.92 284.005969) scale(0.09 -0.09)">
     <defs>
      <path id="DejaVuSans-49" d="M 628 4666 
L 1259 4666 
L 1259 0 
L 628 0 
L 628 4666 
z
" transform="scale(0.015625)"/>
      <path id="DejaVuSans-2f" d="M 1625 4666 
L 2156 4666 
L 531 -594 
L 0 -594 
L 1625 4666 
z
" transform="scale(0.015625)"/>
      <path id="DejaVuSans-56" d="M 1831 0 
L 50 4666 
L 709 4666 
L 2188 738 
L 3669 4666 
L 4325 4666 
L 2547 0 
L 1831 0 
z
" transform="scale(0.015625)"/>
      <path id="DejaVuSans-50" d="M 1259 4147 
L 1259 2394 
L 2053 2394 
Q 2494 2394 2734 2622 
Q 2975 2850 2975 3272 
Q 2975 3691 2734 3919 
Q 2494 4147 2053 4147 
L 1259 4147 
z
M 628 4666 
L 2053 4666 
Q 2838 4666 3239 4311 
Q 3641 3956 3641 3272 
Q 3641 2581 3239 2228 
Q 2838 1875 2053 1875 
L 1259 1875 
L 1259 0 
L 628 0 
L 628 4666 
z
" transform="scale(0.015625)"/>
      <path id="DejaVuSans-47" d="M 3809 666 
L 3809 1919 
L 2778 1919 
L 2778 2438 
L 4434 2438 
L 4434 434 
Q 4069 175 3628 42 
Q 3188 -91 2688 -91 
Q 1594 -91 976 548 
Q 359 1188 359 2328 
Q 359 3472 976 4111 
Q 1594 4750 2688 4750 
Q 3144 4750 3555 4637 
Q 3966 4525 4313 4306 
L 4313 3634 
Q 3963 3931 3569 4081 
Q 3175 4231 2741 4231 
Q 1884 4231 1454 3753 
Q 1025 3275 1025 2328 
Q 1025 1384 1454 906 
Q 1884 428 2741 428 
Q 3075 428 3337 486 
Q 3600 544 3809 666 
z
" transform="scale(0.015625)"/>
      <path id="DejaVuSans-62" d="M 3116 1747 
Q 3116 2381 2855 2742 
Q 2594 3103 2138 3103 
Q 1681 3103 1420 2742 
Q 1159 2381 1159 1747 
Q 1159 1113 1420 752 
Q 1681 391 2138 391 
Q 2594 391 2855 752 
Q 3116 1113 3116 1747 
z
M 1159 2969 
Q 1341 3281 1617 3432 
Q 1894 3584 2278 3584 
Q 2916 3584 3314 3078 
Q 3713 2572 3713 1747 
Q 3713 922 3314 415 
Q 2916 -91 2278 -91 
Q 1894 -91 1617 61 
Q 1341 213 1159 525 
L 1159 0 
L 581 0 
L 581 4863 
L 1159 4863 
L 1159 2969 
z
" transform="scale(0.015625)"/>
      <path id="DejaVuSans-42" d="M 1259 2228 
L 1259 519 
L 2272 519 
Q 2781 519 3026 730 
Q 3272 941 3272 1375 
Q 3272 1813 3026 2020 
Q 2781 2228 2272 2228 
L 1259 2228 
z
M 1259 4147 
L 1259 2741 
L 2194 2741 
Q 2656 2741 2882 2914 
Q 3109 3088 3109 3444 
Q 3109 3797 2882 3972 
Q 2656 4147 2194 4147 
L 1259 4147 
z
M 628 4666 
L 2241 4666 
Q 2963 4666 3353 4366 
Q 3744 4066 3744 3513 
Q 3744 3084 3544 2831 
Q 3344 2578 2956 2516 
Q 3422 2416 3680 2098 
Q 3938 1781 3938 1306 
Q 3938 681 3513 340 
Q 3088 0 2303 0 
L 628 0 
L 628 4666 
z
" transform="scale(0.015625)"/>
      <path id="DejaVuSans-6b" d="M 581 4863 
L 1159 4863 
L 1159 1991 
L 2875 3500 
L 3609 3500 
L 1753 1863 
L 3688 0 
L 2938 0 
L 1159 1709 
L 1159 0 
L 581 0 
L 581 4863 
z
" transform="scale(0.015625)"/>
      <path id="DejaVuSans-48" d="M 628 4666 
L 1259 4666 
L 1259 2753 
L 3553 2753 
L 3553 4666 
L 4184 4666 
L 4184 0 
L 3553 0 
L 3553 2222 
L 1259 2222 
L 1259 0 
L 628 0 
L 628 4666 
z
" transform="scale(0.015625)"/>
      <path id="DejaVuSans-6d" d="M 3328 2828 
Q 3544 3216 3844 3400 
Q 4144 3584 4550 3584 
Q 5097 3584 5394 3201 
Q 5691 2819 5691 2113 
L 5691 0 
L 5113 0 
L 5113 2094 
Q 5113 2597 4934 2840 
Q 4756 3084 4391 3084 
Q 3944 3084 3684 2787 
Q 3425 2491 3425 1978 
L 3425 0 
L 2847 0 
L 2847 2094 
Q 2847 2600 2669 2842 
Q 2491 3084 2119 3084 
Q 1678 3084 1418 2786 
Q 1159 2488 1159 1978 
L 1159 0 
L 581 0 
L 581 3500 
L 1159 3500 
L 1159 2956 
Q 1356 3278 1631 3431 
Q 1906 3584 2284 3584 
Q 2666 3584 2933 3390 
Q 3200 3197 3328 2828 
z
" transform="scale(0.015625)"/>
     </defs>
     <use xlink:href="#DejaVuSans-44"/>
     <use xlink:href="#DejaVuSans-49" x="77.001953"/>
     <use xlink:href="#DejaVuSans-44" x="106.494141"/>
     <use xlink:href="#DejaVuSans-2f" x="183.496094"/>
     <use xlink:href="#DejaVuSans-49" x="217.1875"/>
     <use xlink:href="#DejaVuSans-56" x="246.679688"/>
     <use xlink:href="#DejaVuSans-2f" x="315.087891"/>
     <use xlink:href="#DejaVuSans-52" x="348.779297"/>
     <use xlink:href="#DejaVuSans-44" x="418.261719"/>
     <use xlink:href="#DejaVuSans-44" x="495.263672"/>
     <use xlink:href="#DejaVuSans-2f" x="572.265625"/>
     <use xlink:href="#DejaVuSans-50" x="605.957031"/>
     <use xlink:href="#DejaVuSans-53" x="666.259766"/>
     <use xlink:href="#DejaVuSans-4d" x="729.736328"/>
     <use xlink:href="#DejaVuSans-2f" x="816.015625"/>
     <use xlink:href="#DejaVuSans-47" x="849.707031"/>
     <use xlink:href="#DejaVuSans-4d" x="927.197266"/>
     <use xlink:href="#DejaVuSans-4d" x="1013.476562"/>
     <use xlink:href="#DejaVuSans-20" x="1099.755859"/>
     <use xlink:href="#DejaVuSans-7c" x="1131.542969"/>
     <use xlink:href="#DejaVuSans-20" x="1165.234375"/>
     <use xlink:href="#DejaVuSans-43" x="1197.021484"/>
     <use xlink:href="#DejaVuSans-53" x="1266.845703"/>
     <use xlink:href="#DejaVuSans-2f" x="1330.322266"/>
     <use xlink:href="#DejaVuSans-53" x="1364.013672"/>
     <use xlink:href="#DejaVuSans-75" x="1427.490234"/>
     <use xlink:href="#DejaVuSans-6e" x="1490.869141"/>
     <use xlink:href="#DejaVuSans-41" x="1554.248047"/>
     <use xlink:href="#DejaVuSans-62" x="1622.65625"/>
     <use xlink:href="#DejaVuSans-2f" x="1686.132812"/>
     <use xlink:href="#DejaVuSans-42" x="1719.824219"/>
     <use xlink:href="#DejaVuSans-6f" x="1788.427734"/>
     <use xlink:href="#DejaVuSans-72" x="1849.609375"/>
     <use xlink:href="#DejaVuSans-75" x="1890.722656"/>
     <use xlink:href="#DejaVuSans-73" x="1954.101562"/>
     <use xlink:href="#DejaVuSans-79" x="2006.201172"/>
     <use xlink:href="#DejaVuSans-61" x="2065.380859"/>
     <use xlink:href="#DejaVuSans-6b" x="2126.660156"/>
     <use xlink:href="#DejaVuSans-2f" x="2184.570312"/>
     <use xlink:href="#DejaVuSans-64" x="2218.261719"/>
     <use xlink:href="#DejaVuSans-43" x="2281.738281"/>
     <use xlink:href="#DejaVuSans-64" x="2351.5625"/>
     <use xlink:href="#DejaVuSans-48" x="2415.039062"/>
     <use xlink:href="#DejaVuSans-20" x="2490.234375"/>
     <use xlink:href="#DejaVuSans-7c" x="2522.021484"/>
     <use xlink:href="#DejaVuSans-20" x="2555.712891"/>
     <use xlink:href="#DejaVuSans-6d" x="2587.5"/>
     <use xlink:href="#DejaVuSans-6f" x="2684.912109"/>
     <use xlink:href="#DejaVuSans-64" x="2746.09375"/>
     <use xlink:href="#DejaVuSans-65" x="2809.570312"/>
     <use xlink:href="#DejaVuSans-72" x="2871.09375"/>
     <use xlink:href="#DejaVuSans-6e" x="2910.457031"/>
     <use xlink:href="#DejaVuSans-20" x="2973.835938"/>
     <use xlink:href="#DejaVuSans-63" x="3005.623047"/>
     <use xlink:href="#DejaVuSans-61" x="3060.603516"/>
     <use xlink:href="#DejaVuSans-75" x="3121.882812"/>
     <use xlink:href="#DejaVuSans-73" x="3185.261719"/>
     <use xlink:href="#DejaVuSans-61" x="3237.361328"/>
     <use xlink:href="#DejaVuSans-6c" x="3298.640625"/>
     <use xlink:href="#DejaVuSans-20" x="3326.423828"/>
     <use xlink:href="#DejaVuSans-69" x="3358.210938"/>
     <use xlink:href="#DejaVuSans-6e" x="3385.994141"/>
     <use xlink:href="#DejaVuSans-66" x="3449.373047"/>
     <use xlink:href="#DejaVuSans-65" x="3484.578125"/>
     <use xlink:href="#DejaVuSans-72" x="3546.101562"/>
     <use xlink:href="#DejaVuSans-65" x="3584.964844"/>
     <use xlink:href="#DejaVuSans-6e" x="3646.488281"/>
     <use xlink:href="#DejaVuSans-63" x="3709.867188"/>
     <use xlink:href="#DejaVuSans-65" x="3764.847656"/>
    </g>
   </g>
  </g>
 </g>
 <defs>
  <clipPath id="p426ccd769b">
   <rect x="7.2" y="7.2" width="781.2" height="304.92"/>
  </clipPath>
 </defs>
</svg>
